<svg width="44" height="41" viewBox="0 0 44 41" fill="none" xmlns="http://www.w3.org/2000/svg">
<path fill-rule="evenodd" clip-rule="evenodd" d="M5.35409e-07 3.40481C5.35409e-07 2.5018 0.381093 1.63577 1.05944 0.997248C1.73779 0.358724 2.65783 4.53908e-06 3.61716 4.53908e-06H39.6746C40.15 -0.000726348 40.6209 0.0868157 41.0603 0.257619C41.4997 0.428422 41.899 0.679131 42.2354 0.995393C42.5717 1.31166 42.8385 1.68726 43.0205 2.1007C43.2024 2.51414 43.2959 2.9573 43.2957 3.40481V37.3454C43.2962 37.793 43.2029 38.2363 43.0213 38.6499C42.8396 39.0636 42.5731 39.4394 42.2369 39.756C41.9008 40.0726 41.5016 40.3237 41.0623 40.4949C40.6229 40.6661 40.152 40.7542 39.6765 40.7539H3.61716C3.14198 40.7539 2.67146 40.6658 2.23248 40.4946C1.79349 40.3233 1.39465 40.0724 1.05874 39.756C0.722835 39.4396 0.456438 39.0641 0.274775 38.6508C0.0931118 38.2375 -0.000257994 37.7945 5.35409e-07 37.3472V3.40481ZM17.1372 15.5384H22.9998V18.3096C23.8461 16.7165 26.0108 15.2827 29.2639 15.2827C35.5005 15.2827 36.9784 18.456 36.9784 24.2782V35.0632H30.6671V25.6046C30.6671 22.2887 29.8209 20.4177 27.6718 20.4177C24.6903 20.4177 23.4505 22.435 23.4505 25.6046V35.0632H17.1372V15.5384ZM6.31329 34.8094H12.6266V15.2827H6.31329V34.8075V34.8094ZM13.5299 8.91399C13.5418 9.42281 13.4456 9.92874 13.247 10.4021C13.0483 10.8754 12.7513 11.3067 12.3732 11.6705C11.9951 12.0343 11.5436 12.3234 11.0452 12.5207C10.5468 12.7181 10.0116 12.8197 9.47092 12.8197C8.93024 12.8197 8.39501 12.7181 7.89663 12.5207C7.39825 12.3234 6.94676 12.0343 6.56868 11.6705C6.19059 11.3067 5.89351 10.8754 5.69487 10.4021C5.49624 9.92874 5.40005 9.42281 5.41196 8.91399C5.43532 7.91525 5.87322 6.96483 6.63188 6.26626C7.39054 5.56769 8.40964 5.17652 9.47092 5.17652C10.5322 5.17652 11.5513 5.56769 12.31 6.26626C13.0686 6.96483 13.5065 7.91525 13.5299 8.91399Z" fill="#813F98"/>
</svg>
