<svg width="32" height="33" viewBox="0 0 32 33" fill="none" xmlns="http://www.w3.org/2000/svg">
<path d="M27.9493 8.17787H24.6667V4.61641C24.6667 2.07036 22.7013 0 20.204 0H11.7967C9.298 0 7.33333 2.07036 7.33333 4.61641V8.17787H4.05C1.81267 8.17787 0 9.94361 0 12.2239V27.9029C0 30.1825 1.81267 32.03 4.05 32.03H27.9493C30.186 32.03 32 30.1825 32 27.9022V12.2239C32 9.94361 30.186 8.17787 27.9493 8.17787ZM10 4.61641C10 3.66301 10.8613 2.72596 11.7967 2.72596H20.204C21.1367 2.72596 22 3.66301 22 4.61641V8.17787H10V4.61641ZM23.3333 23.1706H18.6667V27.9411H13.3333V23.1706H8.66667V17.7187H13.3333V12.9483H18.6667V17.7187H23.3333V23.1706Z" fill="#FFD45A"/>
</svg>
