<svg width="135" height="135" viewBox="0 0 135 135" fill="none" xmlns="http://www.w3.org/2000/svg">
<path d="M57.375 20.2434C54.6897 20.2434 52.1144 21.3101 50.2155 23.2089C48.3167 25.1077 47.25 27.6831 47.25 30.3684V47.2501H30.375C27.6897 47.2501 25.1144 48.3169 23.2155 50.2157C21.3167 52.1145 20.25 54.6898 20.25 57.3751V77.6251C20.25 80.3104 21.3167 82.8858 23.2155 84.7846C25.1144 86.6834 27.6897 87.7501 30.375 87.7501H47.25V104.625C47.25 107.31 48.3167 109.886 50.2155 111.785C52.1144 113.683 54.6897 114.75 57.375 114.75H77.625C80.3103 114.75 82.8857 113.683 84.7845 111.785C86.6833 109.886 87.75 107.31 87.75 104.625V87.7501H104.625C107.31 87.7501 109.886 86.6834 111.784 84.7846C113.683 82.8858 114.75 80.3104 114.75 77.6251V57.3751C114.75 54.6898 113.683 52.1145 111.784 50.2157C109.886 48.3169 107.31 47.2501 104.625 47.2501H87.75V30.3684C87.75 27.6831 86.6833 25.1077 84.7845 23.2089C82.8857 21.3101 80.3103 20.2434 77.625 20.2434H57.375Z" fill="#A6DAD3"/>
</svg>
