<svg width="76" height="105" viewBox="0 0 76 105" fill="none" xmlns="http://www.w3.org/2000/svg">
<path d="M46.6012 78.7478H26.9133C26.0392 78.7478 25.2732 79.0779 24.617 79.733C23.9602 80.3899 23.6323 81.1547 23.6323 82.0299V101.719C23.6323 102.594 23.9613 103.36 24.617 104.016C25.2732 104.67 26.0384 105 26.9133 105H46.6012C47.4753 105 48.2433 104.671 48.8969 104.016C49.5549 103.36 49.8833 102.594 49.8833 101.719V82.0299C49.8833 81.1547 49.5558 80.3899 48.8969 79.733C48.2433 79.0762 47.4753 78.7478 46.6012 78.7478Z" fill="#A6DAD3"/>
<path d="M72.4432 19.8112C70.2003 15.6801 67.3027 12.1954 63.7471 9.35093C60.1937 6.50758 56.1988 4.23687 51.77 2.54224C47.3403 0.848178 42.9382 0 38.5623 0C21.9381 0 9.25074 7.27359 0.500021 21.8211C0.0630019 22.5316 -0.0878426 23.297 0.0486359 24.1176C0.185976 24.9371 0.609779 25.6209 1.32062 26.1677L14.7742 36.4225C15.4851 36.8593 16.1689 37.0779 16.8254 37.0779C17.8101 37.0779 18.6571 36.6398 19.3688 35.7649C23.3057 30.8436 26.2321 27.6991 28.146 26.3312C30.498 24.7457 33.4503 23.9533 37.005 23.9533C40.3408 23.9533 43.2796 24.8285 45.8235 26.5771C48.3664 28.3275 49.6366 30.3511 49.6366 32.648C49.6366 35.2172 48.9542 37.2963 47.5866 38.8823C46.2198 40.4678 43.922 41.9983 40.6948 43.4755C36.4304 45.3893 32.5185 48.3565 28.9654 52.3762C25.4098 56.3961 23.6333 60.6755 23.6333 65.2143V68.9056C23.6333 69.9457 23.9189 70.9706 24.4941 71.9822C25.0687 72.9948 25.7655 73.5002 26.5864 73.5002H46.2741C47.1493 73.5002 47.9141 73.0772 48.5709 72.2268C49.2257 71.3814 49.5553 70.4925 49.5553 69.5641C49.5553 68.1973 50.3072 66.3633 51.8099 64.0676C53.3141 61.7708 55.1866 59.9917 57.4305 58.7335C59.5622 57.5307 61.2287 56.5613 62.4331 55.822C63.6387 55.0848 65.2098 53.8927 67.1518 52.2532C69.093 50.612 70.5971 48.9849 71.6622 47.3721C72.7291 45.7591 73.6867 43.6668 74.5343 41.0958C75.3837 38.5257 75.8066 35.7637 75.8066 32.8109C75.806 28.2717 74.684 23.938 72.4432 19.8112Z" fill="#A6DAD3"/>
</svg>
