<svg width="32" height="32" viewBox="0 0 32 32" fill="none" xmlns="http://www.w3.org/2000/svg">
<path d="M28.6312 15.1558H31.9996C31.9996 6.51605 25.4768 0 16.8252 0V3.36834C23.6663 3.36834 28.6312 8.32484 28.6312 15.1558Z" fill="#FFD45A"/>
<path d="M16.8422 10.105C20.384 10.105 21.8947 11.6157 21.8947 15.1575H25.263C25.263 9.72605 22.2736 6.73665 16.8422 6.73665V10.105ZM22.6054 19.2719C22.2818 18.9778 21.8565 18.8209 21.4194 18.8344C20.9823 18.8479 20.5675 19.0308 20.2627 19.3443L16.2325 23.4891C15.2624 23.3038 13.3121 22.6958 11.3046 20.6934C9.29709 18.6841 8.6891 16.7288 8.5089 15.7655L12.6503 11.7336C12.9642 11.429 13.1473 11.0141 13.1608 10.5769C13.1744 10.1397 13.0172 9.71433 12.7227 9.3909L6.49968 2.54812C6.20502 2.22368 5.7955 2.02688 5.35807 1.99952C4.92065 1.97216 4.48979 2.1164 4.157 2.4016L0.502357 5.53584C0.211183 5.82806 0.0373911 6.217 0.0139482 6.62886C-0.0113143 7.0499 -0.492986 17.0235 7.24072 24.7606C13.9875 31.5057 22.4387 31.9992 24.7662 31.9992C25.1064 31.9992 25.3152 31.9891 25.3708 31.9857C25.7826 31.9627 26.1713 31.7881 26.4621 31.4956L29.5947 27.8393C29.8801 27.5067 30.0246 27.076 29.9976 26.6386C29.9705 26.2011 29.774 25.7915 29.4499 25.4966L22.6054 19.2719Z" fill="#FFD45A"/>
</svg>
