<svg width="46" height="43" viewBox="0 0 46 43" fill="none" xmlns="http://www.w3.org/2000/svg">
<path d="M44.8824 12.5098C44.8572 10.7302 44.5027 8.96831 43.8348 7.30289C43.2555 5.89813 42.3709 4.62234 41.2373 3.55706C40.1037 2.49178 38.746 1.66042 37.2512 1.11611C35.5017 0.498977 33.6535 0.165282 31.7853 0.129234C29.3799 0.0281967 28.6172 0 22.5112 0C16.4052 0 15.6226 1.5756e-07 13.2347 0.129234C11.3673 0.165547 9.51995 0.499238 7.77129 1.11611C6.27619 1.66004 4.91837 2.49127 3.78471 3.5566C2.65105 4.62193 1.76652 5.8979 1.1877 7.30289C0.529665 8.94565 0.175337 10.682 0.140023 12.437C0.0325054 14.6998 0 15.4164 0 21.1544C0 26.8924 -1.86295e-08 27.6255 0.140023 29.8718C0.177529 31.6294 0.530088 33.3635 1.1877 35.0107C1.76749 36.4152 2.65268 37.6907 3.78672 38.7556C4.92076 39.8204 6.2787 40.6513 7.77379 41.1951C9.51766 41.837 11.3653 42.1946 13.2372 42.2525C15.6451 42.3535 16.4077 42.384 22.5137 42.384C28.6197 42.384 29.4024 42.384 31.7903 42.2525C33.6585 42.2179 35.5068 41.885 37.2562 41.2679C38.7507 40.723 40.1079 39.8914 41.2414 38.8262C42.375 37.761 43.2599 36.4855 43.8398 35.0811C44.4974 33.4363 44.8499 31.7023 44.8874 29.9423C44.995 27.6819 45.0275 26.9653 45.0275 21.2249C45.0225 15.4869 45.0225 14.7585 44.8824 12.5098ZM22.4962 32.0054C16.1102 32.0054 10.9368 27.1438 10.9368 21.1427C10.9368 15.1415 16.1102 10.28 22.4962 10.28C25.562 10.28 28.5022 11.4244 30.67 13.4616C32.8378 15.4987 34.0556 18.2617 34.0556 21.1427C34.0556 24.0236 32.8378 26.7866 30.67 28.8238C28.5022 30.8609 25.562 32.0054 22.4962 32.0054ZM34.5157 12.4112C33.023 12.4112 31.8203 11.2786 31.8203 9.87817C31.8203 9.54569 31.89 9.21647 32.0254 8.90929C32.1608 8.60212 32.3592 8.32301 32.6094 8.08791C32.8596 7.85281 33.1566 7.66632 33.4834 7.53909C33.8103 7.41185 34.1607 7.34636 34.5145 7.34636C34.8683 7.34636 35.2186 7.41185 35.5455 7.53909C35.8724 7.66632 36.1694 7.85281 36.4196 8.08791C36.6697 8.32301 36.8682 8.60212 37.0036 8.90929C37.139 9.21647 37.2087 9.54569 37.2087 9.87817C37.2087 11.2786 36.0035 12.4112 34.5157 12.4112Z" fill="#813F98"/>
<path d="M22.5137 27.7126C26.3395 27.7126 29.4409 24.7933 29.4409 21.192C29.4409 17.5908 26.3395 14.6714 22.5137 14.6714C18.6879 14.6714 15.5864 17.5908 15.5864 21.192C15.5864 24.7933 18.6879 27.7126 22.5137 27.7126Z" fill="#813F98"/>
</svg>
