<svg width="468" height="433" viewBox="0 0 468 433" fill="none" xmlns="http://www.w3.org/2000/svg">
<path d="M265.415 23.0802C172.826 -76.7054 73.9779 185.408 48.6369 270.04C23.2959 354.672 131.962 367.847 205.031 382.592C321.767 406.153 374.898 359.223 383.738 302.94C392.578 246.658 357.995 122.854 265.415 23.0802Z" fill="#A6DAD3"/>
<path d="M333.26 144.508C280.033 154.57 243.418 101.295 218.731 68.5087C199.318 42.7287 118.108 0.486951 68.1753 77.1557C22.905 146.639 42.1995 249.706 114.208 301.625C186.217 353.544 295.621 348.197 363.367 315.545C406.25 294.89 460.298 256.599 466.743 202.678C473.821 143.432 414.941 129.062 333.26 144.508Z" fill="#813F98"/>
<path d="M342.378 47.0359C340.236 46.971 338.055 46.9438 335.835 46.9541C300.456 47.1189 255.975 56.7197 224.211 67.9298C222.643 68.4826 221.079 69.0393 219.531 69.6041C220.52 70.9151 221.528 72.2554 222.554 73.625C223.637 73.2188 224.724 72.8448 225.819 72.4546C261.06 60.0331 304.25 51.9143 335.857 51.7671C338.022 51.757 340.167 51.7871 342.224 51.8457C357.161 52.3016 368.335 57.4477 374.556 66.728C382.023 77.8196 382.073 94.7253 374.717 114.281C371.4 123.12 368.612 131.488 366.284 139.797C356.924 173.208 354.89 205.606 354.627 262.133C354.575 275.112 354.715 287.036 354.865 298.563C354.959 305.818 355.048 312.732 355.07 319.306C355.218 359.511 353.077 387.228 335.68 405.198C322.148 419.151 306.221 426.593 289.616 426.671C271.328 426.756 252.65 418.167 234.09 401.143C193.177 363.631 142.44 337.395 91.2159 327.286C51.912 319.515 21.005 312.135 10.2962 293.983C4.47809 284.103 4.41565 270.703 10.1334 253.008C15.455 236.499 25.8161 213.628 45.9037 188.599C45.5561 186.426 45.2689 184.258 45.0097 182.089C24.8222 206.353 12.4055 230.296 5.54743 251.529C-12.8805 308.627 27.4464 319.581 90.2737 331.979C140.811 341.947 190.17 367.367 230.829 404.668C251.567 423.691 271.555 431.54 289.634 431.456C308.693 431.367 325.634 422.464 339.134 408.535C358.082 388.982 360.089 359.4 359.865 317.186C359.788 300.798 359.337 282.498 359.435 262.15C359.713 203.59 361.94 172.069 371.372 139.381C373.577 131.75 376.169 124.073 379.22 115.968C394.539 75.2705 378.663 48.1544 342.378 47.0359Z" fill="#FFD45A"/>
<path d="M142.898 203.374C145.447 203.374 146.721 204.385 146.721 206.406C146.721 208.487 145.447 209.527 142.898 209.527H141.931V211.021C141.931 212.339 141.565 213.336 140.832 214.009C140.1 214.683 139.147 215.02 137.976 215.02C136.804 215.02 135.851 214.683 135.119 214.009C134.416 213.336 134.064 212.339 134.064 211.021V209.527H124.264C123.209 209.527 122.374 209.204 121.758 208.56C121.143 207.915 120.835 207.11 120.835 206.143C120.835 205.117 121.158 204.15 121.802 203.242L134.372 185.311C134.782 184.725 135.295 184.285 135.91 183.992C136.555 183.67 137.214 183.509 137.888 183.509C139.001 183.509 139.953 183.861 140.744 184.564C141.535 185.267 141.931 186.248 141.931 187.508V203.374H142.898ZM128.79 203.374H134.064V195.771L128.79 203.374ZM158.702 183.377C162.833 183.377 166.027 184.725 168.283 187.42C170.539 190.116 171.667 193.954 171.667 198.935C171.667 202.217 171.125 205.088 170.041 207.549C168.986 209.981 167.477 211.856 165.514 213.174C163.58 214.493 161.31 215.152 158.702 215.152C157.061 215.152 155.377 214.888 153.648 214.361C151.949 213.834 150.484 213.101 149.253 212.164C148.755 211.783 148.389 211.387 148.154 210.977C147.949 210.567 147.847 210.054 147.847 209.439C147.847 208.531 148.096 207.769 148.594 207.153C149.121 206.509 149.751 206.187 150.484 206.187C150.894 206.187 151.26 206.26 151.582 206.406C151.905 206.524 152.344 206.729 152.901 207.022L153.868 207.505C154.835 207.974 155.64 208.325 156.285 208.56C156.93 208.794 157.603 208.911 158.307 208.911C159.801 208.911 161.002 208.238 161.91 206.89C162.848 205.513 163.405 203.594 163.58 201.132C162.907 202.07 161.998 202.817 160.856 203.374C159.742 203.901 158.512 204.165 157.164 204.165C155.406 204.165 153.824 203.74 152.418 202.89C151.011 202.011 149.898 200.81 149.077 199.287C148.286 197.734 147.891 195.99 147.891 194.057C147.891 192.006 148.345 190.175 149.253 188.563C150.191 186.922 151.48 185.648 153.121 184.74C154.761 183.831 156.622 183.377 158.702 183.377ZM159.186 197.924C160.328 197.924 161.237 197.543 161.91 196.782C162.614 196.02 162.965 195.009 162.965 193.749C162.965 192.519 162.614 191.522 161.91 190.761C161.207 189.969 160.299 189.574 159.186 189.574C158.043 189.574 157.135 189.955 156.461 190.717C155.787 191.478 155.45 192.489 155.45 193.749C155.45 195.038 155.772 196.064 156.417 196.825C157.091 197.558 158.014 197.924 159.186 197.924ZM178.814 206.494C180.103 206.494 181.143 206.963 181.934 207.901C182.754 208.838 183.164 210.171 183.164 211.9C183.164 215.299 181.949 218.258 179.517 220.778C179.077 221.217 178.565 221.437 177.979 221.437C177.393 221.437 176.88 221.232 176.44 220.822C176.001 220.441 175.781 220.001 175.781 219.503C175.781 219.034 175.972 218.609 176.352 218.229C177.378 217.144 178.081 215.973 178.462 214.713C177.349 214.625 176.44 214.229 175.737 213.526C175.034 212.794 174.682 211.871 174.682 210.757C174.682 209.556 175.078 208.545 175.869 207.725C176.66 206.904 177.642 206.494 178.814 206.494ZM197.029 183.377C201.16 183.377 204.353 184.725 206.609 187.42C208.865 190.116 209.994 193.954 209.994 198.935C209.994 202.217 209.451 205.088 208.367 207.549C207.313 209.981 205.804 211.856 203.841 213.174C201.907 214.493 199.636 215.152 197.029 215.152C195.388 215.152 193.703 214.888 191.975 214.361C190.275 213.834 188.81 213.101 187.58 212.164C187.082 211.783 186.715 211.387 186.481 210.977C186.276 210.567 186.173 210.054 186.173 209.439C186.173 208.531 186.422 207.769 186.92 207.153C187.448 206.509 188.078 206.187 188.81 206.187C189.22 206.187 189.587 206.26 189.909 206.406C190.231 206.524 190.671 206.729 191.227 207.022L192.194 207.505C193.161 207.974 193.967 208.325 194.611 208.56C195.256 208.794 195.93 208.911 196.633 208.911C198.127 208.911 199.329 208.238 200.237 206.89C201.174 205.513 201.731 203.594 201.907 201.132C201.233 202.07 200.325 202.817 199.182 203.374C198.069 203.901 196.838 204.165 195.49 204.165C193.732 204.165 192.15 203.74 190.744 202.89C189.338 202.011 188.224 200.81 187.404 199.287C186.613 197.734 186.217 195.99 186.217 194.057C186.217 192.006 186.671 190.175 187.58 188.563C188.517 186.922 189.806 185.648 191.447 184.74C193.088 183.831 194.948 183.377 197.029 183.377ZM197.512 197.924C198.655 197.924 199.563 197.543 200.237 196.782C200.94 196.02 201.292 195.009 201.292 193.749C201.292 192.519 200.94 191.522 200.237 190.761C199.534 189.969 198.625 189.574 197.512 189.574C196.369 189.574 195.461 189.955 194.787 190.717C194.113 191.478 193.776 192.489 193.776 193.749C193.776 195.038 194.099 196.064 194.743 196.825C195.417 197.558 196.34 197.924 197.512 197.924ZM224.479 215.152C220.641 215.152 217.711 213.79 215.69 211.065C213.668 208.34 212.657 204.399 212.657 199.243C212.657 194.115 213.668 190.189 215.69 187.464C217.711 184.74 220.641 183.377 224.479 183.377C228.288 183.377 231.204 184.74 233.225 187.464C235.276 190.189 236.302 194.115 236.302 199.243C236.302 204.399 235.291 208.34 233.269 211.065C231.248 213.79 228.318 215.152 224.479 215.152ZM224.479 209.043C225.886 209.043 226.897 208.281 227.512 206.758C228.127 205.234 228.435 202.729 228.435 199.243C228.435 195.785 228.127 193.295 227.512 191.771C226.897 190.248 225.886 189.486 224.479 189.486C223.073 189.486 222.062 190.248 221.447 191.771C220.832 193.266 220.524 195.756 220.524 199.243C220.524 202.729 220.832 205.234 221.447 206.758C222.062 208.281 223.073 209.043 224.479 209.043ZM243.184 216.163C242.95 216.866 242.569 217.394 242.042 217.745C241.544 218.097 240.972 218.272 240.328 218.272C239.507 218.272 238.79 218.009 238.174 217.481C237.559 216.954 237.251 216.28 237.251 215.46C237.251 215.108 237.31 214.771 237.427 214.449L247.404 183.113C247.638 182.41 248.004 181.883 248.502 181.531C249.03 181.18 249.601 181.004 250.216 181.004C251.037 181.004 251.754 181.268 252.37 181.795C253.014 182.322 253.337 183.011 253.337 183.861C253.337 184.036 253.278 184.359 253.161 184.827L243.184 216.163ZM280.236 192.606C282.609 192.606 284.44 193.324 285.73 194.76C287.019 196.166 287.663 198.554 287.663 201.924V211.416C287.663 212.618 287.282 213.526 286.521 214.141C285.788 214.727 284.865 215.02 283.752 215.02C282.639 215.02 281.701 214.727 280.939 214.141C280.207 213.526 279.84 212.618 279.84 211.416V201.748C279.84 200.576 279.635 199.755 279.225 199.287C278.815 198.818 278.214 198.583 277.423 198.583C276.398 198.583 275.577 198.95 274.962 199.682C274.347 200.415 274.039 201.425 274.039 202.715V211.416C274.039 212.618 273.673 213.526 272.941 214.141C272.208 214.727 271.27 215.02 270.128 215.02C269.014 215.02 268.077 214.727 267.315 214.141C266.583 213.526 266.216 212.618 266.216 211.416V201.748C266.216 200.576 266.011 199.755 265.601 199.287C265.191 198.818 264.59 198.583 263.799 198.583C262.774 198.583 261.953 198.95 261.338 199.682C260.752 200.415 260.459 201.425 260.459 202.715V211.416C260.459 212.618 260.078 213.526 259.316 214.141C258.584 214.727 257.661 215.02 256.548 215.02C255.434 215.02 254.497 214.727 253.735 214.141C253.002 213.526 252.636 212.618 252.636 211.416V196.21C252.636 195.068 253.017 194.203 253.779 193.617C254.57 193.002 255.508 192.694 256.592 192.694C257.617 192.694 258.467 192.973 259.141 193.529C259.844 194.057 260.21 194.833 260.239 195.859C261.675 193.69 263.872 192.606 266.832 192.606C269.967 192.606 272.062 193.881 273.116 196.43C273.849 195.258 274.83 194.335 276.061 193.661C277.291 192.958 278.683 192.606 280.236 192.606ZM309.658 207.813C310.332 207.813 310.874 208.076 311.284 208.604C311.724 209.131 311.943 209.82 311.943 210.669C311.943 211.841 311.372 212.735 310.229 213.35C309.233 213.848 308.047 214.273 306.67 214.625C305.322 214.947 304.077 215.108 302.934 215.108C300.531 215.108 298.436 214.654 296.649 213.746C294.862 212.837 293.485 211.534 292.518 209.834C291.551 208.135 291.068 206.143 291.068 203.857C291.068 201.689 291.522 199.755 292.43 198.056C293.368 196.327 294.657 194.994 296.298 194.057C297.968 193.09 299.843 192.606 301.923 192.606C303.945 192.606 305.717 193.046 307.241 193.925C308.764 194.804 309.936 196.049 310.757 197.661C311.606 199.272 312.031 201.162 312.031 203.33C312.031 204.004 311.87 204.531 311.548 204.912C311.255 205.264 310.815 205.439 310.229 205.439H298.627C298.832 206.846 299.286 207.857 299.989 208.472C300.692 209.087 301.733 209.395 303.11 209.395C303.842 209.395 304.516 209.322 305.131 209.175C305.747 208.999 306.435 208.765 307.197 208.472C307.636 208.296 308.061 208.15 308.471 208.032C308.911 207.886 309.306 207.813 309.658 207.813ZM302.143 197.88C301.117 197.88 300.297 198.217 299.682 198.891C299.066 199.536 298.7 200.488 298.583 201.748H305.483C305.307 199.169 304.194 197.88 302.143 197.88ZM299.242 189.398C298.685 190.16 298.026 190.541 297.264 190.541C296.649 190.541 296.092 190.321 295.594 189.882C295.126 189.442 294.891 188.915 294.891 188.299C294.891 187.801 295.082 187.318 295.463 186.849L299.066 182.586C299.506 182.029 299.931 181.634 300.341 181.399C300.78 181.165 301.308 181.048 301.923 181.048C302.568 181.048 303.08 181.18 303.461 181.443C303.871 181.678 304.311 182.088 304.78 182.674L308.384 186.849C308.735 187.289 308.911 187.772 308.911 188.299C308.911 188.915 308.676 189.442 308.208 189.882C307.739 190.321 307.197 190.541 306.582 190.541C305.82 190.541 305.161 190.16 304.604 189.398L301.923 185.662L299.242 189.398ZM324.124 215.108C322.161 215.108 320.506 214.962 319.158 214.669C317.81 214.376 316.623 213.907 315.598 213.262C315.188 213.057 314.865 212.706 314.631 212.208C314.397 211.709 314.28 211.153 314.28 210.538C314.28 209.746 314.485 209.102 314.895 208.604C315.334 208.076 315.876 207.813 316.521 207.813C316.96 207.813 317.371 207.871 317.751 207.988C318.132 208.076 318.601 208.238 319.158 208.472C320.095 208.794 320.916 209.043 321.619 209.219C322.351 209.395 323.274 209.483 324.388 209.483C325.179 209.483 325.794 209.38 326.234 209.175C326.702 208.941 326.937 208.618 326.937 208.208C326.937 207.886 326.82 207.637 326.585 207.461C326.38 207.285 325.97 207.124 325.355 206.978C324.739 206.802 323.699 206.567 322.234 206.274C319.627 205.776 317.737 205.029 316.565 204.033C315.422 203.008 314.851 201.572 314.851 199.726C314.851 198.378 315.261 197.162 316.081 196.078C316.931 194.994 318.088 194.145 319.553 193.529C321.018 192.914 322.659 192.606 324.476 192.606C325.794 192.606 327.069 192.768 328.299 193.09C329.559 193.412 330.672 193.866 331.639 194.452C332.548 194.98 333.002 195.829 333.002 197.001C333.002 197.822 332.782 198.51 332.342 199.067C331.903 199.624 331.361 199.902 330.716 199.902C329.955 199.902 329.046 199.653 327.992 199.155C327.288 198.832 326.658 198.598 326.102 198.452C325.574 198.276 324.944 198.188 324.212 198.188C323.479 198.188 322.908 198.305 322.498 198.539C322.088 198.745 321.883 199.052 321.883 199.462C321.883 199.931 322.161 200.297 322.718 200.561C323.304 200.825 324.446 201.118 326.146 201.44C328.988 201.938 330.995 202.7 332.167 203.725C333.339 204.722 333.925 206.172 333.925 208.076C333.925 210.215 333.031 211.929 331.244 213.218C329.486 214.478 327.113 215.108 324.124 215.108Z" fill="#A6DAD3"/>
<path d="M147.044 228.783C148.323 228.783 149.452 229.102 150.43 229.742C151.409 230.381 152.168 231.28 152.708 232.438C153.247 233.577 153.517 234.906 153.517 236.424C153.517 237.942 153.247 239.27 152.708 240.409C152.168 241.528 151.409 242.397 150.43 243.016C149.472 243.635 148.343 243.945 147.044 243.945C145.906 243.945 144.907 243.695 144.048 243.196C143.209 242.696 142.57 241.987 142.13 241.068V248.11C142.13 248.47 142.02 248.749 141.801 248.949C141.601 249.169 141.311 249.279 140.932 249.279C140.552 249.279 140.252 249.169 140.033 248.949C139.813 248.729 139.703 248.45 139.703 248.11V230.041C139.703 229.682 139.813 229.392 140.033 229.172C140.252 228.952 140.552 228.843 140.932 228.843C141.311 228.843 141.601 228.952 141.801 229.172C142.02 229.392 142.13 229.682 142.13 230.041V231.659C142.57 230.74 143.209 230.031 144.048 229.532C144.907 229.032 145.906 228.783 147.044 228.783ZM146.565 241.937C147.983 241.937 149.082 241.458 149.861 240.499C150.64 239.54 151.03 238.182 151.03 236.424C151.03 234.666 150.64 233.297 149.861 232.319C149.082 231.32 147.983 230.82 146.565 230.82C145.147 230.82 144.048 231.3 143.269 232.259C142.51 233.217 142.13 234.586 142.13 236.364C142.13 238.142 142.51 239.52 143.269 240.499C144.048 241.458 145.147 241.937 146.565 241.937ZM158.372 243.885C158.013 243.885 157.713 243.785 157.473 243.585C157.253 243.366 157.144 243.066 157.144 242.686V223.659C157.144 223.279 157.253 222.989 157.473 222.79C157.713 222.57 158.013 222.46 158.372 222.46C158.712 222.46 158.991 222.57 159.211 222.79C159.451 222.989 159.571 223.279 159.571 223.659V242.686C159.571 243.066 159.451 243.366 159.211 243.585C158.991 243.785 158.712 243.885 158.372 243.885ZM170.071 228.783C173.727 228.783 175.555 230.7 175.555 234.536V242.686C175.555 243.046 175.445 243.336 175.225 243.555C175.025 243.775 174.746 243.885 174.386 243.885C174.027 243.885 173.737 243.775 173.517 243.555C173.297 243.336 173.188 243.046 173.188 242.686V241.248C172.808 242.107 172.229 242.776 171.45 243.256C170.67 243.715 169.772 243.945 168.753 243.945C167.814 243.945 166.945 243.755 166.146 243.376C165.367 242.996 164.747 242.467 164.288 241.787C163.828 241.108 163.599 240.359 163.599 239.54C163.599 238.441 163.878 237.592 164.438 236.993C164.997 236.374 165.916 235.934 167.195 235.675C168.473 235.395 170.251 235.255 172.528 235.255H173.188V234.266C173.188 233.068 172.938 232.189 172.438 231.629C171.959 231.07 171.17 230.79 170.071 230.79C168.713 230.79 167.334 231.16 165.936 231.899C165.397 232.239 165.017 232.408 164.797 232.408C164.558 232.408 164.358 232.319 164.198 232.139C164.038 231.959 163.958 231.729 163.958 231.45C163.958 231.17 164.038 230.93 164.198 230.73C164.378 230.511 164.657 230.291 165.037 230.071C165.736 229.672 166.525 229.362 167.404 229.142C168.303 228.903 169.192 228.783 170.071 228.783ZM169.082 242.027C170.281 242.027 171.26 241.628 172.019 240.829C172.798 240.01 173.188 238.961 173.188 237.682V236.813H172.648C170.89 236.813 169.552 236.893 168.633 237.053C167.714 237.193 167.055 237.443 166.655 237.802C166.276 238.142 166.086 238.651 166.086 239.33C166.086 240.109 166.365 240.759 166.925 241.278C167.504 241.778 168.223 242.027 169.082 242.027ZM187.339 228.783C190.835 228.783 192.583 230.71 192.583 234.566V242.686C192.583 243.066 192.473 243.366 192.254 243.585C192.054 243.785 191.764 243.885 191.385 243.885C191.005 243.885 190.705 243.785 190.486 243.585C190.266 243.366 190.156 243.066 190.156 242.686V234.716C190.156 233.357 189.886 232.368 189.347 231.749C188.828 231.13 187.988 230.82 186.83 230.82C185.491 230.82 184.423 231.23 183.624 232.049C182.824 232.868 182.425 233.977 182.425 235.375V242.686C182.425 243.066 182.315 243.366 182.095 243.585C181.896 243.785 181.606 243.885 181.226 243.885C180.847 243.885 180.547 243.785 180.327 243.585C180.108 243.366 179.998 243.066 179.998 242.686V230.041C179.998 229.682 180.108 229.392 180.327 229.172C180.547 228.952 180.847 228.843 181.226 228.843C181.586 228.843 181.866 228.952 182.065 229.172C182.285 229.392 182.395 229.672 182.395 230.011V231.539C182.874 230.64 183.544 229.961 184.403 229.502C185.262 229.022 186.241 228.783 187.339 228.783ZM203.082 243.945C201.703 243.945 200.485 243.635 199.426 243.016C198.387 242.397 197.578 241.518 196.999 240.379C196.439 239.22 196.16 237.882 196.16 236.364C196.16 234.846 196.439 233.517 196.999 232.378C197.578 231.22 198.387 230.331 199.426 229.712C200.485 229.092 201.703 228.783 203.082 228.783C204.46 228.783 205.679 229.092 206.737 229.712C207.796 230.331 208.605 231.22 209.165 232.378C209.744 233.517 210.034 234.846 210.034 236.364C210.034 237.882 209.744 239.22 209.165 240.379C208.605 241.518 207.796 242.397 206.737 243.016C205.679 243.635 204.46 243.945 203.082 243.945ZM203.082 241.937C204.52 241.937 205.619 241.468 206.378 240.529C207.157 239.57 207.546 238.182 207.546 236.364C207.546 234.586 207.157 233.217 206.378 232.259C205.599 231.28 204.5 230.79 203.082 230.79C201.663 230.79 200.565 231.28 199.786 232.259C199.006 233.217 198.617 234.586 198.617 236.364C198.617 238.162 198.996 239.54 199.756 240.499C200.535 241.458 201.643 241.937 203.082 241.937ZM227.818 224.528C226.759 224.608 225.96 224.947 225.421 225.546C224.881 226.126 224.612 227.005 224.612 228.183V229.142H227.938C228.277 229.142 228.537 229.232 228.717 229.412C228.897 229.592 228.986 229.831 228.986 230.131C228.986 230.431 228.897 230.66 228.717 230.82C228.537 230.98 228.277 231.06 227.938 231.06H224.612V242.686C224.612 243.066 224.492 243.366 224.252 243.585C224.032 243.785 223.753 243.885 223.413 243.885C223.053 243.885 222.754 243.785 222.514 243.585C222.294 243.366 222.184 243.066 222.184 242.686V231.06H220.177C219.837 231.06 219.567 230.98 219.368 230.82C219.188 230.64 219.098 230.411 219.098 230.131C219.098 229.831 219.188 229.592 219.368 229.412C219.567 229.232 219.837 229.142 220.177 229.142H222.184V228.603C222.184 226.805 222.634 225.397 223.533 224.378C224.432 223.339 225.72 222.76 227.398 222.64L228.177 222.58C228.697 222.54 229.066 222.59 229.286 222.73C229.526 222.87 229.646 223.119 229.646 223.479C229.646 224.058 229.296 224.388 228.597 224.468L227.818 224.528ZM237.024 228.783C240.68 228.783 242.508 230.7 242.508 234.536V242.686C242.508 243.046 242.398 243.336 242.178 243.555C241.979 243.775 241.699 243.885 241.339 243.885C240.98 243.885 240.69 243.775 240.47 243.555C240.251 243.336 240.141 243.046 240.141 242.686V241.248C239.761 242.107 239.182 242.776 238.403 243.256C237.624 243.715 236.725 243.945 235.706 243.945C234.767 243.945 233.898 243.755 233.099 243.376C232.32 242.996 231.701 242.467 231.241 241.787C230.782 241.108 230.552 240.359 230.552 239.54C230.552 238.441 230.832 237.592 231.391 236.993C231.95 236.374 232.869 235.934 234.148 235.675C235.426 235.395 237.204 235.255 239.482 235.255H240.141V234.266C240.141 233.068 239.891 232.189 239.392 231.629C238.912 231.07 238.123 230.79 237.024 230.79C235.666 230.79 234.288 231.16 232.889 231.899C232.35 232.239 231.97 232.408 231.751 232.408C231.511 232.408 231.311 232.319 231.151 232.139C230.991 231.959 230.912 231.729 230.912 231.45C230.912 231.17 230.991 230.93 231.151 230.73C231.331 230.511 231.611 230.291 231.99 230.071C232.689 229.672 233.479 229.362 234.357 229.142C235.256 228.903 236.145 228.783 237.024 228.783ZM236.036 242.027C237.234 242.027 238.213 241.628 238.972 240.829C239.751 240.01 240.141 238.961 240.141 237.682V236.813H239.601C237.843 236.813 236.505 236.893 235.586 237.053C234.667 237.193 234.008 237.443 233.608 237.802C233.229 238.142 233.039 238.651 233.039 239.33C233.039 240.109 233.319 240.759 233.878 241.278C234.457 241.778 235.177 242.027 236.036 242.027ZM263.192 228.783C266.428 228.783 268.046 230.71 268.046 234.566V242.686C268.046 243.066 267.937 243.366 267.717 243.585C267.497 243.785 267.207 243.885 266.848 243.885C266.488 243.885 266.189 243.785 265.949 243.585C265.729 243.366 265.619 243.066 265.619 242.686V234.626C265.619 233.287 265.38 232.319 264.9 231.719C264.421 231.12 263.672 230.82 262.653 230.82C261.434 230.82 260.475 231.23 259.776 232.049C259.077 232.868 258.727 233.977 258.727 235.375V242.686C258.727 243.066 258.607 243.366 258.368 243.585C258.148 243.785 257.858 243.885 257.499 243.885C257.139 243.885 256.849 243.785 256.63 243.585C256.41 243.366 256.3 243.066 256.3 242.686V234.626C256.3 233.287 256.06 232.319 255.581 231.719C255.102 231.12 254.342 230.82 253.304 230.82C252.105 230.82 251.146 231.23 250.427 232.049C249.728 232.868 249.378 233.977 249.378 235.375V242.686C249.378 243.066 249.268 243.366 249.049 243.585C248.829 243.785 248.539 243.885 248.18 243.885C247.82 243.885 247.52 243.785 247.281 243.585C247.061 243.366 246.951 243.066 246.951 242.686V230.041C246.951 229.682 247.061 229.392 247.281 229.172C247.52 228.952 247.82 228.843 248.18 228.843C248.519 228.843 248.799 228.952 249.019 229.172C249.238 229.372 249.348 229.652 249.348 230.011V231.45C249.788 230.591 250.397 229.931 251.176 229.472C251.955 229.012 252.854 228.783 253.873 228.783C256.15 228.783 257.639 229.742 258.338 231.659C258.757 230.78 259.397 230.081 260.256 229.562C261.115 229.042 262.093 228.783 263.192 228.783ZM273.697 243.885C273.337 243.885 273.038 243.785 272.798 243.585C272.578 243.366 272.468 243.066 272.468 242.686V230.041C272.468 229.662 272.578 229.372 272.798 229.172C273.038 228.952 273.337 228.843 273.697 228.843C274.056 228.843 274.346 228.952 274.566 229.172C274.785 229.372 274.895 229.662 274.895 230.041V242.686C274.895 243.086 274.785 243.386 274.566 243.585C274.346 243.785 274.056 243.885 273.697 243.885ZM274.236 227.195C274.076 227.314 273.916 227.374 273.757 227.374C273.557 227.374 273.387 227.314 273.247 227.195C273.107 227.055 273.038 226.895 273.038 226.715C273.038 226.555 273.097 226.405 273.217 226.266L276.693 221.711C277.053 221.251 277.462 221.022 277.922 221.022C278.241 221.022 278.511 221.132 278.731 221.351C278.951 221.551 279.06 221.811 279.06 222.13C279.06 222.55 278.861 222.929 278.461 223.269L274.236 227.195ZM280.661 243.885C280.302 243.885 280.002 243.785 279.762 243.585C279.543 243.366 279.433 243.066 279.433 242.686V223.659C279.433 223.279 279.543 222.989 279.762 222.79C280.002 222.57 280.302 222.46 280.661 222.46C281.001 222.46 281.281 222.57 281.5 222.79C281.74 222.989 281.86 223.279 281.86 223.659V242.686C281.86 243.066 281.74 243.366 281.5 243.585C281.281 243.785 281.001 243.885 280.661 243.885ZM287.626 243.885C287.266 243.885 286.967 243.785 286.727 243.585C286.507 243.366 286.397 243.066 286.397 242.686V230.041C286.397 229.662 286.507 229.372 286.727 229.172C286.967 228.952 287.266 228.843 287.626 228.843C287.985 228.843 288.275 228.952 288.495 229.172C288.715 229.372 288.824 229.662 288.824 230.041V242.686C288.824 243.086 288.715 243.386 288.495 243.585C288.275 243.785 287.985 243.885 287.626 243.885ZM287.626 225.696C287.146 225.696 286.757 225.556 286.457 225.277C286.158 224.997 286.008 224.627 286.008 224.168C286.008 223.729 286.158 223.369 286.457 223.089C286.757 222.81 287.146 222.67 287.626 222.67C288.105 222.67 288.495 222.81 288.794 223.089C289.094 223.369 289.244 223.729 289.244 224.168C289.244 224.627 289.094 224.997 288.794 225.277C288.495 225.556 288.105 225.696 287.626 225.696ZM299.325 228.783C302.981 228.783 304.808 230.7 304.808 234.536V242.686C304.808 243.046 304.699 243.336 304.479 243.555C304.279 243.775 303.999 243.885 303.64 243.885C303.28 243.885 302.991 243.775 302.771 243.555C302.551 243.336 302.441 243.046 302.441 242.686V241.248C302.062 242.107 301.482 242.776 300.703 243.256C299.924 243.715 299.025 243.945 298.006 243.945C297.067 243.945 296.198 243.755 295.399 243.376C294.62 242.996 294.001 242.467 293.542 241.787C293.082 241.108 292.852 240.359 292.852 239.54C292.852 238.441 293.132 237.592 293.691 236.993C294.251 236.374 295.17 235.934 296.448 235.675C297.727 235.395 299.505 235.255 301.782 235.255H302.441V234.266C302.441 233.068 302.192 232.189 301.692 231.629C301.213 231.07 300.424 230.79 299.325 230.79C297.966 230.79 296.588 231.16 295.19 231.899C294.65 232.239 294.271 232.408 294.051 232.408C293.811 232.408 293.612 232.319 293.452 232.139C293.292 231.959 293.212 231.729 293.212 231.45C293.212 231.17 293.292 230.93 293.452 230.73C293.631 230.511 293.911 230.291 294.291 230.071C294.99 229.672 295.779 229.362 296.658 229.142C297.557 228.903 298.446 228.783 299.325 228.783ZM298.336 242.027C299.535 242.027 300.513 241.628 301.273 240.829C302.052 240.01 302.441 238.961 302.441 237.682V236.813H301.902C300.144 236.813 298.805 236.893 297.887 237.053C296.968 237.193 296.308 237.443 295.909 237.802C295.529 238.142 295.339 238.651 295.339 239.33C295.339 240.109 295.619 240.759 296.179 241.278C296.758 241.778 297.477 242.027 298.336 242.027ZM316.473 228.843C317.312 228.783 317.732 229.122 317.732 229.861C317.732 230.181 317.642 230.441 317.462 230.64C317.282 230.82 316.972 230.93 316.533 230.97L315.634 231.06C314.296 231.18 313.297 231.659 312.638 232.498C311.998 233.317 311.679 234.286 311.679 235.405V242.686C311.679 243.086 311.569 243.386 311.349 243.585C311.129 243.785 310.84 243.885 310.48 243.885C310.12 243.885 309.821 243.785 309.581 243.585C309.361 243.366 309.251 243.066 309.251 242.686V230.041C309.251 229.662 309.371 229.372 309.611 229.172C309.851 228.952 310.14 228.843 310.48 228.843C310.8 228.843 311.069 228.952 311.289 229.172C311.509 229.372 311.619 229.652 311.619 230.011V231.689C312.038 230.81 312.628 230.141 313.387 229.682C314.166 229.222 315.055 228.952 316.054 228.873L316.473 228.843Z" fill="#A6DAD3"/>
<path d="M131.07 263.275C131.529 263.314 131.758 263.524 131.758 263.904C131.758 264.126 131.673 264.297 131.502 264.414C131.345 264.519 131.103 264.559 130.776 264.532L130.245 264.493C129.197 264.414 128.424 264.1 127.927 263.55C127.429 263 127.18 262.168 127.18 261.055V256.123H125.864C125.641 256.123 125.464 256.071 125.333 255.966C125.215 255.848 125.156 255.698 125.156 255.514C125.156 255.318 125.215 255.161 125.333 255.043C125.464 254.925 125.641 254.866 125.864 254.866H127.18V252.646C127.18 252.397 127.252 252.207 127.396 252.076C127.54 251.932 127.737 251.86 127.986 251.86C128.221 251.86 128.411 251.932 128.555 252.076C128.699 252.207 128.771 252.397 128.771 252.646V254.866H130.952C131.162 254.866 131.326 254.925 131.444 255.043C131.574 255.161 131.64 255.318 131.64 255.514C131.64 255.698 131.574 255.848 131.444 255.966C131.326 256.071 131.162 256.123 130.952 256.123H128.771V261.133C128.771 261.854 128.916 262.378 129.204 262.705C129.505 263.019 129.95 263.196 130.54 263.236L131.07 263.275ZM134.132 264.532C133.896 264.532 133.7 264.467 133.543 264.336C133.399 264.192 133.327 263.995 133.327 263.746V255.455C133.327 255.206 133.399 255.016 133.543 254.885C133.7 254.741 133.896 254.669 134.132 254.669C134.368 254.669 134.558 254.741 134.702 254.885C134.846 255.016 134.918 255.206 134.918 255.455V263.746C134.918 264.008 134.846 264.205 134.702 264.336C134.558 264.467 134.368 264.532 134.132 264.532ZM134.132 252.606C133.818 252.606 133.562 252.515 133.366 252.331C133.169 252.148 133.071 251.906 133.071 251.604C133.071 251.316 133.169 251.08 133.366 250.897C133.562 250.714 133.818 250.622 134.132 250.622C134.446 250.622 134.702 250.714 134.898 250.897C135.095 251.08 135.193 251.316 135.193 251.604C135.193 251.906 135.095 252.148 134.898 252.331C134.702 252.515 134.446 252.606 134.132 252.606ZM142.467 263.275C142.926 263.314 143.155 263.524 143.155 263.904C143.155 264.126 143.07 264.297 142.899 264.414C142.742 264.519 142.5 264.559 142.172 264.532L141.642 264.493C140.594 264.414 139.821 264.1 139.324 263.55C138.826 263 138.577 262.168 138.577 261.055V256.123H137.261C137.038 256.123 136.861 256.071 136.73 255.966C136.612 255.848 136.553 255.698 136.553 255.514C136.553 255.318 136.612 255.161 136.73 255.043C136.861 254.925 137.038 254.866 137.261 254.866H138.577V252.646C138.577 252.397 138.649 252.207 138.793 252.076C138.937 251.932 139.134 251.86 139.383 251.86C139.618 251.86 139.808 251.932 139.952 252.076C140.096 252.207 140.168 252.397 140.168 252.646V254.866H142.349C142.559 254.866 142.723 254.925 142.84 255.043C142.971 255.161 143.037 255.318 143.037 255.514C143.037 255.698 142.971 255.848 142.84 255.966C142.723 256.071 142.559 256.123 142.349 256.123H140.168V261.133C140.168 261.854 140.313 262.378 140.601 262.705C140.902 263.019 141.347 263.196 141.937 263.236L142.467 263.275ZM151.993 254.669C152.242 254.669 152.432 254.741 152.563 254.885C152.707 255.03 152.779 255.219 152.779 255.455V263.766C152.779 263.989 152.707 264.172 152.563 264.316C152.432 264.46 152.242 264.532 151.993 264.532C151.757 264.532 151.567 264.467 151.423 264.336C151.292 264.192 151.227 264.008 151.227 263.786V262.803C150.926 263.38 150.5 263.818 149.95 264.12C149.413 264.421 148.804 264.572 148.123 264.572C146.983 264.572 146.125 264.257 145.549 263.629C144.972 262.987 144.684 262.044 144.684 260.799V255.455C144.684 255.219 144.756 255.03 144.9 254.885C145.044 254.741 145.241 254.669 145.49 254.669C145.739 254.669 145.929 254.741 146.06 254.885C146.204 255.03 146.276 255.219 146.276 255.455V260.76C146.276 261.611 146.446 262.24 146.787 262.646C147.127 263.039 147.664 263.236 148.398 263.236C149.236 263.236 149.91 262.967 150.421 262.43C150.932 261.88 151.188 261.16 151.188 260.269V255.455C151.188 255.219 151.26 255.03 151.404 254.885C151.548 254.741 151.744 254.669 151.993 254.669ZM156.542 264.532C156.307 264.532 156.11 264.467 155.953 264.336C155.809 264.192 155.737 263.995 155.737 263.746V251.27C155.737 251.022 155.809 250.832 155.953 250.701C156.11 250.557 156.307 250.484 156.542 250.484C156.765 250.484 156.948 250.557 157.092 250.701C157.25 250.832 157.328 251.022 157.328 251.27V263.746C157.328 263.995 157.25 264.192 157.092 264.336C156.948 264.467 156.765 264.532 156.542 264.532ZM164.213 254.63C166.61 254.63 167.809 255.888 167.809 258.402V263.746C167.809 263.982 167.736 264.172 167.592 264.316C167.461 264.46 167.278 264.532 167.042 264.532C166.807 264.532 166.617 264.46 166.473 264.316C166.328 264.172 166.256 263.982 166.256 263.746V262.803C166.008 263.367 165.628 263.805 165.117 264.12C164.606 264.421 164.017 264.572 163.349 264.572C162.733 264.572 162.163 264.447 161.639 264.198C161.128 263.949 160.722 263.602 160.421 263.157C160.12 262.712 159.969 262.22 159.969 261.683C159.969 260.963 160.153 260.406 160.519 260.013C160.886 259.607 161.489 259.319 162.327 259.149C163.165 258.966 164.331 258.874 165.824 258.874H166.256V258.226C166.256 257.44 166.093 256.863 165.765 256.497C165.451 256.13 164.933 255.946 164.213 255.946C163.322 255.946 162.419 256.189 161.502 256.673C161.148 256.896 160.899 257.007 160.755 257.007C160.598 257.007 160.467 256.948 160.362 256.831C160.257 256.713 160.205 256.562 160.205 256.379C160.205 256.195 160.257 256.038 160.362 255.907C160.48 255.763 160.663 255.619 160.912 255.475C161.371 255.213 161.888 255.01 162.464 254.866C163.054 254.709 163.637 254.63 164.213 254.63ZM163.565 263.314C164.351 263.314 164.992 263.052 165.49 262.528C166.001 261.991 166.256 261.304 166.256 260.465V259.896H165.903C164.75 259.896 163.873 259.948 163.27 260.053C162.667 260.144 162.235 260.308 161.973 260.544C161.724 260.767 161.6 261.101 161.6 261.546C161.6 262.057 161.783 262.482 162.15 262.823C162.53 263.15 163.001 263.314 163.565 263.314ZM175.457 254.669C176.007 254.63 176.282 254.853 176.282 255.337C176.282 255.547 176.223 255.717 176.105 255.848C175.987 255.966 175.784 256.038 175.496 256.064L174.907 256.123C174.029 256.202 173.374 256.516 172.942 257.066C172.523 257.603 172.313 258.239 172.313 258.972V263.746C172.313 264.008 172.241 264.205 172.097 264.336C171.953 264.467 171.763 264.532 171.527 264.532C171.291 264.532 171.095 264.467 170.938 264.336C170.794 264.192 170.722 263.995 170.722 263.746V255.455C170.722 255.206 170.8 255.016 170.957 254.885C171.115 254.741 171.305 254.669 171.527 254.669C171.737 254.669 171.914 254.741 172.058 254.885C172.202 255.016 172.274 255.2 172.274 255.436V256.536C172.549 255.96 172.935 255.521 173.433 255.219C173.944 254.918 174.527 254.741 175.182 254.689L175.457 254.669ZM191.299 258.226C191.47 258.226 191.614 258.284 191.732 258.402C191.863 258.52 191.928 258.664 191.928 258.835C191.928 259.005 191.869 259.156 191.751 259.286C191.633 259.404 191.483 259.463 191.299 259.463H187.743V263C187.743 263.183 187.684 263.334 187.566 263.452C187.448 263.57 187.304 263.629 187.134 263.629C186.964 263.629 186.82 263.57 186.702 263.452C186.584 263.321 186.525 263.17 186.525 263V259.463H182.969C182.799 259.463 182.648 259.404 182.517 259.286C182.399 259.156 182.34 259.005 182.34 258.835C182.34 258.664 182.399 258.52 182.517 258.402C182.648 258.284 182.799 258.226 182.969 258.226H186.525V254.689C186.525 254.506 186.584 254.355 186.702 254.237C186.82 254.106 186.964 254.041 187.134 254.041C187.304 254.041 187.448 254.106 187.566 254.237C187.684 254.355 187.743 254.506 187.743 254.689V258.226H191.299ZM205.827 257.322C206.665 257.558 207.301 257.964 207.733 258.54C208.178 259.116 208.401 259.83 208.401 260.681C208.401 261.886 207.995 262.836 207.183 263.53C206.371 264.225 205.264 264.572 203.862 264.572C203.011 264.572 202.192 264.428 201.406 264.139C200.634 263.851 199.979 263.458 199.442 262.961C199.232 262.764 199.127 262.541 199.127 262.293C199.127 262.096 199.18 261.932 199.284 261.801C199.389 261.67 199.514 261.605 199.658 261.605C199.841 261.605 200.024 261.677 200.208 261.821C200.81 262.306 201.4 262.659 201.976 262.882C202.552 263.105 203.175 263.216 203.843 263.216C204.812 263.216 205.545 262.993 206.043 262.548C206.554 262.103 206.809 261.461 206.809 260.623C206.809 258.933 205.748 258.088 203.627 258.088H202.585C202.376 258.088 202.205 258.023 202.074 257.892C201.956 257.747 201.898 257.584 201.898 257.4C201.898 257.217 201.956 257.06 202.074 256.929C202.205 256.798 202.376 256.732 202.585 256.732H203.312C204.334 256.732 205.12 256.51 205.67 256.064C206.22 255.606 206.495 254.951 206.495 254.1C206.495 253.353 206.272 252.783 205.827 252.39C205.382 251.984 204.753 251.781 203.941 251.781C203.325 251.781 202.729 251.899 202.153 252.135C201.577 252.358 201 252.705 200.424 253.176C200.241 253.32 200.057 253.392 199.874 253.392C199.73 253.392 199.605 253.327 199.501 253.196C199.396 253.065 199.343 252.901 199.343 252.705C199.343 252.456 199.448 252.233 199.658 252.037C200.195 251.539 200.843 251.146 201.603 250.858C202.376 250.57 203.168 250.426 203.98 250.426C205.238 250.426 206.24 250.746 206.986 251.388C207.733 252.03 208.1 252.895 208.086 253.982C208.073 254.768 207.864 255.455 207.458 256.045C207.065 256.634 206.521 257.06 205.827 257.322ZM224.088 250.484C224.337 250.484 224.533 250.557 224.677 250.701C224.821 250.845 224.893 251.028 224.893 251.251V263.746C224.893 263.982 224.821 264.172 224.677 264.316C224.533 264.46 224.337 264.532 224.088 264.532C223.839 264.532 223.642 264.46 223.498 264.316C223.367 264.172 223.302 263.982 223.302 263.746V262.685C223.014 263.288 222.588 263.753 222.025 264.08C221.475 264.408 220.826 264.572 220.08 264.572C219.241 264.572 218.501 264.362 217.859 263.943C217.218 263.524 216.72 262.941 216.366 262.194C216.013 261.435 215.836 260.557 215.836 259.562C215.836 258.579 216.013 257.715 216.366 256.968C216.72 256.222 217.218 255.645 217.859 255.239C218.501 254.833 219.241 254.63 220.08 254.63C220.826 254.63 221.475 254.794 222.025 255.121C222.588 255.449 223.014 255.914 223.302 256.516V251.251C223.302 251.015 223.367 250.832 223.498 250.701C223.642 250.557 223.839 250.484 224.088 250.484ZM220.394 263.255C221.324 263.255 222.038 262.941 222.536 262.312C223.046 261.67 223.302 260.767 223.302 259.601C223.302 258.435 223.046 257.538 222.536 256.909C222.038 256.28 221.324 255.966 220.394 255.966C219.464 255.966 218.737 256.28 218.213 256.909C217.702 257.538 217.447 258.422 217.447 259.562C217.447 260.727 217.702 261.638 218.213 262.293C218.737 262.934 219.464 263.255 220.394 263.255ZM235.248 262.214C235.392 262.214 235.516 262.273 235.621 262.391C235.726 262.509 235.778 262.659 235.778 262.843C235.778 263.17 235.549 263.471 235.091 263.746C234.619 264.021 234.121 264.231 233.598 264.375C233.074 264.506 232.563 264.572 232.065 264.572C230.585 264.572 229.413 264.133 228.548 263.255C227.697 262.378 227.271 261.166 227.271 259.62C227.271 258.638 227.461 257.774 227.841 257.027C228.221 256.267 228.751 255.678 229.432 255.259C230.127 254.84 230.912 254.63 231.79 254.63C233.034 254.63 234.023 255.036 234.757 255.848C235.49 256.66 235.857 257.761 235.857 259.149C235.857 259.411 235.805 259.601 235.7 259.719C235.595 259.837 235.425 259.896 235.189 259.896H228.863C228.98 262.148 230.048 263.275 232.065 263.275C232.576 263.275 233.015 263.209 233.381 263.078C233.748 262.934 234.141 262.744 234.56 262.509C234.901 262.312 235.13 262.214 235.248 262.214ZM231.81 255.868C230.971 255.868 230.297 256.13 229.786 256.654C229.288 257.178 228.994 257.918 228.902 258.874H234.462C234.436 257.905 234.194 257.165 233.735 256.654C233.277 256.13 232.635 255.868 231.81 255.868ZM243.015 254.63C243.854 254.63 244.594 254.84 245.236 255.259C245.877 255.678 246.375 256.267 246.729 257.027C247.082 257.774 247.259 258.645 247.259 259.64C247.259 260.636 247.082 261.507 246.729 262.253C246.375 262.987 245.877 263.557 245.236 263.963C244.607 264.369 243.867 264.572 243.015 264.572C242.269 264.572 241.614 264.408 241.051 264.08C240.501 263.753 240.081 263.288 239.793 262.685V267.303C239.793 267.538 239.721 267.722 239.577 267.853C239.446 267.997 239.256 268.069 239.007 268.069C238.758 268.069 238.562 267.997 238.418 267.853C238.274 267.709 238.202 267.525 238.202 267.303V255.455C238.202 255.219 238.274 255.03 238.418 254.885C238.562 254.741 238.758 254.669 239.007 254.669C239.256 254.669 239.446 254.741 239.577 254.885C239.721 255.03 239.793 255.219 239.793 255.455V256.516C240.081 255.914 240.501 255.449 241.051 255.121C241.614 254.794 242.269 254.63 243.015 254.63ZM242.701 263.255C243.631 263.255 244.351 262.941 244.862 262.312C245.373 261.683 245.628 260.793 245.628 259.64C245.628 258.487 245.373 257.59 244.862 256.948C244.351 256.294 243.631 255.966 242.701 255.966C241.771 255.966 241.051 256.28 240.54 256.909C240.042 257.538 239.793 258.435 239.793 259.601C239.793 260.767 240.042 261.67 240.54 262.312C241.051 262.941 241.771 263.255 242.701 263.255ZM257.044 262.214C257.188 262.214 257.313 262.273 257.417 262.391C257.522 262.509 257.575 262.659 257.575 262.843C257.575 263.17 257.345 263.471 256.887 263.746C256.415 264.021 255.918 264.231 255.394 264.375C254.87 264.506 254.359 264.572 253.861 264.572C252.381 264.572 251.209 264.133 250.344 263.255C249.493 262.378 249.067 261.166 249.067 259.62C249.067 258.638 249.257 257.774 249.637 257.027C250.017 256.267 250.547 255.678 251.229 255.259C251.923 254.84 252.709 254.63 253.586 254.63C254.831 254.63 255.819 255.036 256.553 255.848C257.286 256.66 257.653 257.761 257.653 259.149C257.653 259.411 257.601 259.601 257.496 259.719C257.391 259.837 257.221 259.896 256.985 259.896H250.659C250.777 262.148 251.844 263.275 253.861 263.275C254.372 263.275 254.811 263.209 255.178 263.078C255.544 262.934 255.937 262.744 256.357 262.509C256.697 262.312 256.926 262.214 257.044 262.214ZM253.606 255.868C252.768 255.868 252.093 256.13 251.582 256.654C251.084 257.178 250.79 257.918 250.698 258.874H256.258C256.232 257.905 255.99 257.165 255.531 256.654C255.073 256.13 254.431 255.868 253.606 255.868ZM264.812 254.63C267.104 254.63 268.25 255.894 268.25 258.422V263.746C268.25 263.995 268.178 264.192 268.034 264.336C267.903 264.467 267.713 264.532 267.464 264.532C267.215 264.532 267.019 264.467 266.875 264.336C266.73 264.192 266.658 263.995 266.658 263.746V258.52C266.658 257.63 266.482 256.981 266.128 256.575C265.787 256.169 265.237 255.966 264.478 255.966C263.6 255.966 262.899 256.235 262.375 256.772C261.851 257.309 261.589 258.036 261.589 258.952V263.746C261.589 263.995 261.517 264.192 261.373 264.336C261.242 264.467 261.052 264.532 260.804 264.532C260.555 264.532 260.358 264.467 260.214 264.336C260.07 264.192 259.998 263.995 259.998 263.746V255.455C259.998 255.219 260.07 255.03 260.214 254.885C260.358 254.741 260.555 254.669 260.804 254.669C261.039 254.669 261.223 254.741 261.354 254.885C261.498 255.03 261.57 255.213 261.57 255.436V256.438C261.884 255.848 262.323 255.403 262.886 255.102C263.449 254.787 264.091 254.63 264.812 254.63ZM278.847 250.484C279.096 250.484 279.292 250.557 279.436 250.701C279.58 250.845 279.652 251.028 279.652 251.251V263.746C279.652 263.982 279.58 264.172 279.436 264.316C279.292 264.46 279.096 264.532 278.847 264.532C278.598 264.532 278.401 264.46 278.257 264.316C278.126 264.172 278.061 263.982 278.061 263.746V262.685C277.773 263.288 277.347 263.753 276.784 264.08C276.234 264.408 275.585 264.572 274.839 264.572C274.001 264.572 273.26 264.362 272.619 263.943C271.977 263.524 271.479 262.941 271.125 262.194C270.772 261.435 270.595 260.557 270.595 259.562C270.595 258.579 270.772 257.715 271.125 256.968C271.479 256.222 271.977 255.645 272.619 255.239C273.26 254.833 274.001 254.63 274.839 254.63C275.585 254.63 276.234 254.794 276.784 255.121C277.347 255.449 277.773 255.914 278.061 256.516V251.251C278.061 251.015 278.126 250.832 278.257 250.701C278.401 250.557 278.598 250.484 278.847 250.484ZM275.153 263.255C276.083 263.255 276.797 262.941 277.295 262.312C277.806 261.67 278.061 260.767 278.061 259.601C278.061 258.435 277.806 257.538 277.295 256.909C276.797 256.28 276.083 255.966 275.153 255.966C274.223 255.966 273.496 256.28 272.972 256.909C272.461 257.538 272.206 258.422 272.206 259.562C272.206 260.727 272.461 261.638 272.972 262.293C273.496 262.934 274.223 263.255 275.153 263.255ZM290.007 262.214C290.151 262.214 290.276 262.273 290.38 262.391C290.485 262.509 290.538 262.659 290.538 262.843C290.538 263.17 290.308 263.471 289.85 263.746C289.378 264.021 288.881 264.231 288.357 264.375C287.833 264.506 287.322 264.572 286.824 264.572C285.344 264.572 284.172 264.133 283.307 263.255C282.456 262.378 282.03 261.166 282.03 259.62C282.03 258.638 282.22 257.774 282.6 257.027C282.98 256.267 283.51 255.678 284.192 255.259C284.886 254.84 285.672 254.63 286.549 254.63C287.794 254.63 288.782 255.036 289.516 255.848C290.249 256.66 290.616 257.761 290.616 259.149C290.616 259.411 290.564 259.601 290.459 259.719C290.354 259.837 290.184 259.896 289.948 259.896H283.622C283.74 262.148 284.807 263.275 286.824 263.275C287.335 263.275 287.774 263.209 288.141 263.078C288.507 262.934 288.9 262.744 289.319 262.509C289.66 262.312 289.889 262.214 290.007 262.214ZM286.569 255.868C285.731 255.868 285.056 256.13 284.545 256.654C284.047 257.178 283.753 257.918 283.661 258.874H289.221C289.195 257.905 288.953 257.165 288.494 256.654C288.036 256.13 287.394 255.868 286.569 255.868ZM297.775 254.63C300.067 254.63 301.213 255.894 301.213 258.422V263.746C301.213 263.995 301.141 264.192 300.997 264.336C300.866 264.467 300.676 264.532 300.427 264.532C300.178 264.532 299.982 264.467 299.838 264.336C299.693 264.192 299.621 263.995 299.621 263.746V258.52C299.621 257.63 299.445 256.981 299.091 256.575C298.75 256.169 298.2 255.966 297.441 255.966C296.563 255.966 295.862 256.235 295.338 256.772C294.814 257.309 294.552 258.036 294.552 258.952V263.746C294.552 263.995 294.48 264.192 294.336 264.336C294.205 264.467 294.015 264.532 293.767 264.532C293.518 264.532 293.321 264.467 293.177 264.336C293.033 264.192 292.961 263.995 292.961 263.746V255.455C292.961 255.219 293.033 255.03 293.177 254.885C293.321 254.741 293.518 254.669 293.767 254.669C294.002 254.669 294.186 254.741 294.317 254.885C294.461 255.03 294.533 255.213 294.533 255.436V256.438C294.847 255.848 295.286 255.403 295.849 255.102C296.412 254.787 297.054 254.63 297.775 254.63ZM308.548 263.275C309.007 263.314 309.236 263.524 309.236 263.904C309.236 264.126 309.151 264.297 308.981 264.414C308.823 264.519 308.581 264.559 308.254 264.532L307.723 264.493C306.675 264.414 305.903 264.1 305.405 263.55C304.907 263 304.658 262.168 304.658 261.055V256.123H303.342C303.119 256.123 302.942 256.071 302.811 255.966C302.693 255.848 302.635 255.698 302.635 255.514C302.635 255.318 302.693 255.161 302.811 255.043C302.942 254.925 303.119 254.866 303.342 254.866H304.658V252.646C304.658 252.397 304.73 252.207 304.874 252.076C305.018 251.932 305.215 251.86 305.464 251.86C305.699 251.86 305.889 251.932 306.033 252.076C306.178 252.207 306.25 252.397 306.25 252.646V254.866H308.43C308.64 254.866 308.804 254.925 308.922 255.043C309.053 255.161 309.118 255.318 309.118 255.514C309.118 255.698 309.053 255.848 308.922 255.966C308.804 256.071 308.64 256.123 308.43 256.123H306.25V261.133C306.25 261.854 306.394 262.378 306.682 262.705C306.983 263.019 307.428 263.196 308.018 263.236L308.548 263.275ZM318.212 262.214C318.356 262.214 318.48 262.273 318.585 262.391C318.69 262.509 318.742 262.659 318.742 262.843C318.742 263.17 318.513 263.471 318.055 263.746C317.583 264.021 317.085 264.231 316.561 264.375C316.037 264.506 315.527 264.572 315.029 264.572C313.549 264.572 312.376 264.133 311.512 263.255C310.661 262.378 310.235 261.166 310.235 259.62C310.235 258.638 310.425 257.774 310.805 257.027C311.185 256.267 311.715 255.678 312.396 255.259C313.09 254.84 313.876 254.63 314.754 254.63C315.998 254.63 316.987 255.036 317.721 255.848C318.454 256.66 318.821 257.761 318.821 259.149C318.821 259.411 318.768 259.601 318.664 259.719C318.559 259.837 318.389 259.896 318.153 259.896H311.826C311.944 262.148 313.012 263.275 315.029 263.275C315.54 263.275 315.979 263.209 316.345 263.078C316.712 262.934 317.105 262.744 317.524 262.509C317.865 262.312 318.094 262.214 318.212 262.214ZM314.773 255.868C313.935 255.868 313.261 256.13 312.75 256.654C312.252 257.178 311.957 257.918 311.866 258.874H317.426C317.4 257.905 317.157 257.165 316.699 256.654C316.24 256.13 315.599 255.868 314.773 255.868ZM324.388 264.572C323.785 264.572 323.209 264.5 322.659 264.355C322.122 264.211 321.644 264.008 321.225 263.746C320.989 263.589 320.818 263.445 320.714 263.314C320.622 263.17 320.576 263 320.576 262.803C320.576 262.633 320.622 262.496 320.714 262.391C320.818 262.273 320.949 262.214 321.107 262.214C321.264 262.214 321.493 262.312 321.794 262.509C322.187 262.744 322.574 262.934 322.954 263.078C323.346 263.209 323.831 263.275 324.407 263.275C325.115 263.275 325.665 263.15 326.058 262.902C326.451 262.653 326.647 262.293 326.647 261.821C326.647 261.533 326.575 261.304 326.431 261.133C326.287 260.95 326.038 260.793 325.684 260.662C325.331 260.518 324.813 260.374 324.132 260.23C322.98 259.981 322.155 259.647 321.657 259.228C321.159 258.808 320.91 258.239 320.91 257.518C320.91 256.955 321.067 256.457 321.382 256.025C321.696 255.593 322.128 255.252 322.678 255.003C323.242 254.755 323.877 254.63 324.584 254.63C325.095 254.63 325.586 254.702 326.058 254.846C326.542 254.977 326.968 255.167 327.335 255.416C327.78 255.73 328.003 256.058 328.003 256.398C328.003 256.569 327.95 256.713 327.846 256.831C327.741 256.948 327.616 257.007 327.472 257.007C327.315 257.007 327.079 256.896 326.765 256.673C326.398 256.438 326.051 256.254 325.724 256.123C325.396 255.992 324.99 255.927 324.506 255.927C323.89 255.927 323.392 256.064 323.012 256.339C322.646 256.614 322.462 256.981 322.462 257.44C322.462 257.728 322.528 257.964 322.659 258.147C322.803 258.317 323.032 258.474 323.346 258.618C323.674 258.749 324.139 258.88 324.741 259.011C325.632 259.208 326.32 259.424 326.804 259.66C327.302 259.896 327.656 260.184 327.865 260.524C328.075 260.865 328.18 261.297 328.18 261.821C328.18 262.646 327.833 263.314 327.138 263.825C326.444 264.323 325.527 264.572 324.388 264.572Z" fill="#A6DAD3"/>
</svg>
