<svg width="461" height="427" viewBox="0 0 461 427" fill="none" xmlns="http://www.w3.org/2000/svg">
<path d="M261.445 22.7351C170.241 -75.5579 72.8712 182.634 47.9093 266.001C22.9473 349.367 129.988 362.345 201.964 376.869C316.954 400.078 369.291 353.85 377.998 298.409C386.706 242.969 352.64 121.016 261.445 22.7351Z" fill="#A6DAD3"/>
<path d="M328.276 142.346C275.845 152.258 239.777 99.7803 215.459 67.4841C196.337 42.0897 116.341 0.479833 67.1558 76.0018C22.5626 144.446 41.5685 245.971 112.5 297.113C183.432 348.256 291.199 342.989 357.932 310.826C400.174 290.479 453.413 252.761 459.761 199.646C466.734 141.286 408.735 127.132 328.276 142.346Z" fill="#813F98"/>
<path d="M337.257 46.3326C335.147 46.2686 332.998 46.2418 330.811 46.252C295.962 46.4143 252.146 55.8715 220.857 66.9139C219.313 67.4584 217.772 68.0069 216.247 68.5632C217.222 69.8545 218.214 71.1748 219.226 72.5239C220.292 72.1239 221.362 71.7554 222.441 71.3711C257.155 59.1353 299.699 51.138 330.833 50.993C332.966 50.983 335.079 51.0127 337.105 51.0704C351.818 51.5195 362.825 56.5886 368.953 65.7301C376.308 76.6557 376.358 93.3087 369.112 112.572C365.845 121.279 363.098 129.521 360.806 137.707C351.586 170.617 349.582 202.53 349.323 258.212C349.272 270.997 349.409 282.743 349.557 294.097C349.65 301.244 349.737 308.055 349.759 314.53C349.904 354.134 347.796 381.437 330.659 399.137C317.33 412.882 301.64 420.213 285.284 420.289C267.269 420.373 248.871 411.913 230.588 395.143C190.288 358.192 140.31 332.349 89.8515 322.39C51.1355 314.736 20.6908 307.466 10.1422 289.586C4.4111 279.854 4.3496 266.654 9.98182 249.224C15.2238 232.961 25.4299 210.433 45.217 185.778C44.8747 183.638 44.5918 181.502 44.3365 179.366C24.4509 203.267 12.2199 226.851 5.46445 247.767C-12.6878 304.01 27.0358 314.801 88.9234 327.013C138.704 336.833 187.326 361.872 227.376 398.615C247.804 417.354 267.493 425.085 285.302 425.002C304.076 424.915 320.764 416.145 334.061 402.425C352.726 383.164 354.703 354.024 354.482 312.442C354.407 296.299 353.963 278.273 354.059 258.229C354.332 200.545 356.526 169.496 365.817 137.296C367.99 129.779 370.542 122.217 373.547 114.234C388.637 74.1448 372.999 47.4343 337.257 46.3326Z" fill="#FFD45A"/>
<path d="M142.861 198.458C144.564 198.948 145.892 199.843 146.844 201.142C147.825 202.441 148.316 204.014 148.316 205.861C148.316 207.621 147.84 209.151 146.887 210.45C145.935 211.748 144.578 212.758 142.818 213.48C141.086 214.173 139.052 214.519 136.714 214.519C134.838 214.519 133.034 214.274 131.302 213.783C129.571 213.263 128.07 212.528 126.8 211.575C126.309 211.2 125.963 210.81 125.761 210.406C125.559 209.973 125.458 209.468 125.458 208.891C125.458 207.996 125.703 207.246 126.194 206.64C126.685 206.005 127.291 205.687 128.012 205.687C128.416 205.687 128.777 205.76 129.094 205.904C129.412 206.019 129.845 206.221 130.393 206.51C130.509 206.568 130.639 206.64 130.783 206.726C130.956 206.784 131.144 206.856 131.346 206.943C132.269 207.405 133.092 207.765 133.813 208.025C134.564 208.256 135.401 208.372 136.324 208.372C137.94 208.372 139.095 208.112 139.787 207.592C140.509 207.073 140.87 206.207 140.87 204.995C140.87 203.869 140.509 203.061 139.787 202.571C139.066 202.08 137.883 201.835 136.238 201.835H133.554C132.688 201.835 132.009 201.532 131.519 200.925C131.028 200.319 130.783 199.598 130.783 198.761C130.783 197.924 131.028 197.202 131.519 196.596C132.009 195.99 132.688 195.687 133.554 195.687H135.458C137.046 195.687 138.2 195.456 138.922 194.995C139.643 194.533 140.004 193.797 140.004 192.787C140.004 191.719 139.686 190.896 139.052 190.319C138.417 189.713 137.536 189.41 136.411 189.41C135.603 189.41 134.838 189.54 134.116 189.8C133.424 190.059 132.644 190.406 131.779 190.839L130.869 191.271C130.321 191.56 129.888 191.777 129.571 191.921C129.253 192.036 128.892 192.094 128.488 192.094C127.767 192.094 127.161 191.791 126.67 191.185C126.18 190.55 125.934 189.785 125.934 188.89C125.934 188.284 126.035 187.779 126.237 187.375C126.439 186.971 126.786 186.582 127.276 186.206C128.517 185.283 129.975 184.561 131.649 184.042C133.351 183.522 135.069 183.263 136.8 183.263C138.936 183.263 140.812 183.609 142.428 184.302C144.073 184.994 145.329 185.975 146.195 187.245C147.089 188.515 147.537 189.987 147.537 191.661C147.537 193.248 147.118 194.648 146.281 195.86C145.473 197.044 144.333 197.909 142.861 198.458ZM172.629 202.96C175.14 202.96 176.395 203.956 176.395 205.947C176.395 207.996 175.14 209.021 172.629 209.021H171.676V210.493C171.676 211.792 171.316 212.773 170.594 213.437C169.873 214.1 168.935 214.432 167.78 214.432C166.626 214.432 165.688 214.1 164.966 213.437C164.274 212.773 163.927 211.792 163.927 210.493V209.021H154.273C153.234 209.021 152.412 208.703 151.806 208.069C151.199 207.434 150.896 206.64 150.896 205.687C150.896 204.677 151.214 203.725 151.849 202.83L164.23 185.167C164.634 184.59 165.139 184.157 165.745 183.869C166.38 183.551 167.03 183.392 167.694 183.392C168.79 183.392 169.728 183.739 170.507 184.431C171.287 185.124 171.676 186.091 171.676 187.332V202.96H172.629ZM158.732 202.96H163.927V195.471L158.732 202.96ZM182.049 206.034C183.319 206.034 184.344 206.496 185.123 207.419C185.931 208.343 186.335 209.656 186.335 211.359C186.335 214.707 185.137 217.621 182.742 220.104C182.309 220.536 181.804 220.753 181.227 220.753C180.65 220.753 180.145 220.551 179.712 220.147C179.279 219.772 179.062 219.339 179.062 218.848C179.062 218.386 179.25 217.968 179.625 217.593C180.635 216.525 181.328 215.37 181.703 214.129C180.606 214.043 179.712 213.653 179.019 212.96C178.326 212.239 177.98 211.33 177.98 210.233C177.98 209.05 178.37 208.054 179.149 207.246C179.928 206.438 180.895 206.034 182.049 206.034ZM199.992 183.263C204.061 183.263 207.207 184.59 209.429 187.245C211.652 189.901 212.763 193.681 212.763 198.588C212.763 201.82 212.229 204.648 211.161 207.073C210.122 209.468 208.636 211.315 206.702 212.614C204.797 213.913 202.561 214.562 199.992 214.562C198.376 214.562 196.716 214.302 195.013 213.783C193.34 213.263 191.896 212.542 190.684 211.618C190.194 211.243 189.833 210.854 189.602 210.45C189.4 210.045 189.299 209.54 189.299 208.934C189.299 208.04 189.544 207.289 190.035 206.683C190.554 206.048 191.175 205.731 191.896 205.731C192.301 205.731 192.661 205.803 192.979 205.947C193.296 206.063 193.729 206.265 194.277 206.553L195.23 207.03C196.182 207.491 196.976 207.838 197.611 208.069C198.246 208.299 198.91 208.415 199.602 208.415C201.074 208.415 202.258 207.751 203.152 206.423C204.076 205.067 204.624 203.177 204.797 200.752C204.134 201.676 203.239 202.412 202.113 202.96C201.017 203.48 199.804 203.739 198.477 203.739C196.745 203.739 195.187 203.321 193.801 202.484C192.416 201.618 191.319 200.435 190.511 198.934C189.732 197.404 189.342 195.687 189.342 193.782C189.342 191.762 189.79 189.958 190.684 188.371C191.608 186.755 192.878 185.499 194.494 184.605C196.11 183.71 197.943 183.263 199.992 183.263ZM200.468 197.592C201.594 197.592 202.488 197.217 203.152 196.466C203.845 195.716 204.191 194.72 204.191 193.479C204.191 192.267 203.845 191.286 203.152 190.535C202.46 189.756 201.565 189.367 200.468 189.367C199.343 189.367 198.448 189.742 197.784 190.492C197.12 191.243 196.788 192.238 196.788 193.479C196.788 194.749 197.106 195.759 197.741 196.51C198.405 197.231 199.314 197.592 200.468 197.592ZM227.032 214.562C223.251 214.562 220.365 213.22 218.374 210.536C216.382 207.852 215.387 203.97 215.387 198.891C215.387 193.84 216.382 189.973 218.374 187.289C220.365 184.605 223.251 183.263 227.032 183.263C230.784 183.263 233.656 184.605 235.647 187.289C237.667 189.973 238.678 193.84 238.678 198.891C238.678 203.97 237.682 207.852 235.69 210.536C233.699 213.22 230.813 214.562 227.032 214.562ZM227.032 208.545C228.418 208.545 229.413 207.794 230.019 206.294C230.625 204.793 230.928 202.325 230.928 198.891C230.928 195.485 230.625 193.032 230.019 191.531C229.413 190.03 228.418 189.28 227.032 189.28C225.647 189.28 224.651 190.03 224.045 191.531C223.439 193.003 223.136 195.456 223.136 198.891C223.136 202.325 223.439 204.793 224.045 206.294C224.651 207.794 225.647 208.545 227.032 208.545ZM245.457 215.558C245.227 216.251 244.851 216.77 244.332 217.116C243.841 217.463 243.278 217.636 242.643 217.636C241.835 217.636 241.128 217.376 240.522 216.857C239.916 216.337 239.613 215.673 239.613 214.865C239.613 214.519 239.671 214.187 239.786 213.87L249.613 183.003C249.844 182.31 250.205 181.791 250.696 181.444C251.215 181.098 251.778 180.925 252.384 180.925C253.192 180.925 253.899 181.185 254.505 181.704C255.14 182.224 255.458 182.902 255.458 183.739C255.458 183.912 255.4 184.229 255.285 184.691L245.457 215.558ZM281.955 192.354C284.293 192.354 286.096 193.061 287.366 194.475C288.636 195.86 289.271 198.213 289.271 201.532V210.882C289.271 212.066 288.896 212.96 288.145 213.567C287.424 214.144 286.515 214.432 285.418 214.432C284.321 214.432 283.398 214.144 282.647 213.567C281.926 212.96 281.565 212.066 281.565 210.882V201.358C281.565 200.204 281.363 199.396 280.959 198.934C280.555 198.472 279.963 198.241 279.184 198.241C278.174 198.241 277.366 198.602 276.76 199.324C276.154 200.045 275.851 201.041 275.851 202.311V210.882C275.851 212.066 275.49 212.96 274.768 213.567C274.047 214.144 273.123 214.432 271.998 214.432C270.901 214.432 269.977 214.144 269.227 213.567C268.506 212.96 268.145 212.066 268.145 210.882V201.358C268.145 200.204 267.943 199.396 267.539 198.934C267.135 198.472 266.543 198.241 265.764 198.241C264.754 198.241 263.946 198.602 263.339 199.324C262.762 200.045 262.474 201.041 262.474 202.311V210.882C262.474 212.066 262.098 212.96 261.348 213.567C260.627 214.144 259.717 214.432 258.621 214.432C257.524 214.432 256.6 214.144 255.85 213.567C255.129 212.96 254.768 212.066 254.768 210.882V195.904C254.768 194.778 255.143 193.927 255.893 193.349C256.673 192.743 257.596 192.44 258.664 192.44C259.674 192.44 260.511 192.714 261.175 193.263C261.868 193.782 262.228 194.547 262.257 195.557C263.671 193.422 265.836 192.354 268.751 192.354C271.839 192.354 273.903 193.609 274.942 196.12C275.663 194.966 276.63 194.057 277.842 193.393C279.054 192.7 280.425 192.354 281.955 192.354ZM310.937 207.333C311.6 207.333 312.134 207.592 312.538 208.112C312.971 208.631 313.188 209.31 313.188 210.147C313.188 211.301 312.625 212.181 311.499 212.787C310.518 213.278 309.349 213.696 307.993 214.043C306.665 214.36 305.439 214.519 304.313 214.519C301.946 214.519 299.883 214.072 298.122 213.177C296.362 212.282 295.005 210.998 294.053 209.324C293.101 207.65 292.624 205.687 292.624 203.436C292.624 201.301 293.072 199.396 293.966 197.722C294.89 196.019 296.16 194.706 297.776 193.782C299.421 192.83 301.268 192.354 303.317 192.354C305.309 192.354 307.055 192.787 308.556 193.652C310.056 194.518 311.211 195.745 312.019 197.332C312.856 198.92 313.274 200.781 313.274 202.917C313.274 203.581 313.116 204.1 312.798 204.475C312.51 204.822 312.077 204.995 311.499 204.995H300.071C300.273 206.38 300.72 207.376 301.413 207.982C302.105 208.588 303.13 208.891 304.486 208.891C305.208 208.891 305.872 208.819 306.478 208.675C307.084 208.501 307.762 208.271 308.512 207.982C308.945 207.809 309.364 207.664 309.768 207.549C310.201 207.405 310.59 207.333 310.937 207.333ZM303.534 197.549C302.524 197.549 301.716 197.881 301.11 198.544C300.503 199.179 300.143 200.117 300.027 201.358H306.824C306.651 198.819 305.554 197.549 303.534 197.549ZM300.677 189.193C300.128 189.944 299.479 190.319 298.728 190.319C298.122 190.319 297.574 190.103 297.083 189.67C296.622 189.237 296.391 188.717 296.391 188.111C296.391 187.621 296.578 187.144 296.954 186.683L300.503 182.483C300.936 181.935 301.355 181.545 301.759 181.314C302.192 181.084 302.711 180.968 303.317 180.968C303.952 180.968 304.457 181.098 304.833 181.358C305.237 181.589 305.67 181.993 306.131 182.57L309.681 186.683C310.028 187.115 310.201 187.592 310.201 188.111C310.201 188.717 309.97 189.237 309.508 189.67C309.046 190.103 308.512 190.319 307.906 190.319C307.156 190.319 306.507 189.944 305.958 189.193L303.317 185.514L300.677 189.193ZM325.186 214.519C323.253 214.519 321.622 214.375 320.294 214.086C318.967 213.797 317.798 213.336 316.788 212.701C316.384 212.499 316.066 212.152 315.835 211.662C315.604 211.171 315.489 210.623 315.489 210.017C315.489 209.237 315.691 208.602 316.095 208.112C316.528 207.592 317.062 207.333 317.697 207.333C318.13 207.333 318.534 207.39 318.909 207.506C319.284 207.592 319.746 207.751 320.294 207.982C321.218 208.299 322.026 208.545 322.719 208.718C323.44 208.891 324.349 208.978 325.446 208.978C326.225 208.978 326.831 208.877 327.264 208.675C327.726 208.444 327.957 208.126 327.957 207.722C327.957 207.405 327.842 207.159 327.611 206.986C327.409 206.813 327.005 206.654 326.398 206.51C325.792 206.337 324.768 206.106 323.325 205.817C320.756 205.327 318.895 204.591 317.74 203.61C316.615 202.599 316.052 201.185 316.052 199.367C316.052 198.039 316.456 196.842 317.264 195.774C318.101 194.706 319.241 193.869 320.684 193.263C322.127 192.657 323.743 192.354 325.533 192.354C326.831 192.354 328.087 192.512 329.299 192.83C330.54 193.147 331.637 193.595 332.589 194.172C333.484 194.691 333.931 195.528 333.931 196.683C333.931 197.491 333.715 198.169 333.282 198.718C332.849 199.266 332.315 199.54 331.68 199.54C330.93 199.54 330.035 199.295 328.996 198.804C328.303 198.487 327.683 198.256 327.134 198.111C326.615 197.938 325.994 197.852 325.273 197.852C324.551 197.852 323.989 197.967 323.585 198.198C323.18 198.4 322.978 198.703 322.978 199.107C322.978 199.569 323.253 199.93 323.801 200.189C324.378 200.449 325.504 200.738 327.178 201.055C329.977 201.546 331.954 202.296 333.109 203.306C334.263 204.288 334.84 205.716 334.84 207.592C334.84 209.699 333.96 211.388 332.2 212.657C330.468 213.898 328.13 214.519 325.186 214.519Z" fill="#A6DAD3"/>
<path d="M167.555 229.297C168.814 229.297 169.926 229.612 170.89 230.242C171.854 230.872 172.602 231.757 173.133 232.899C173.665 234.02 173.93 235.329 173.93 236.824C173.93 238.32 173.665 239.628 173.133 240.75C172.602 241.852 171.854 242.708 170.89 243.318C169.946 243.928 168.834 244.233 167.555 244.233C166.433 244.233 165.449 243.987 164.603 243.495C163.777 243.003 163.147 242.305 162.714 241.399V248.336C162.714 248.69 162.606 248.966 162.389 249.162C162.193 249.379 161.907 249.487 161.533 249.487C161.159 249.487 160.864 249.379 160.648 249.162C160.431 248.946 160.323 248.67 160.323 248.336V230.537C160.323 230.183 160.431 229.898 160.648 229.681C160.864 229.465 161.159 229.356 161.533 229.356C161.907 229.356 162.193 229.465 162.389 229.681C162.606 229.898 162.714 230.183 162.714 230.537V232.131C163.147 231.226 163.777 230.527 164.603 230.035C165.449 229.543 166.433 229.297 167.555 229.297ZM167.083 242.255C168.48 242.255 169.562 241.783 170.329 240.839C171.097 239.894 171.481 238.556 171.481 236.824C171.481 235.093 171.097 233.745 170.329 232.78C169.562 231.797 168.48 231.305 167.083 231.305C165.685 231.305 164.603 231.777 163.836 232.721C163.088 233.666 162.714 235.014 162.714 236.765C162.714 238.517 163.088 239.874 163.836 240.839C164.603 241.783 165.685 242.255 167.083 242.255ZM183.465 244.233C182.108 244.233 180.907 243.928 179.864 243.318C178.841 242.708 178.044 241.842 177.473 240.72C176.922 239.579 176.647 238.261 176.647 236.765C176.647 235.27 176.922 233.961 177.473 232.839C178.044 231.698 178.841 230.822 179.864 230.212C180.907 229.602 182.108 229.297 183.465 229.297C184.823 229.297 186.023 229.602 187.066 230.212C188.109 230.822 188.906 231.698 189.457 232.839C190.028 233.961 190.313 235.27 190.313 236.765C190.313 238.261 190.028 239.579 189.457 240.72C188.906 241.842 188.109 242.708 187.066 243.318C186.023 243.928 184.823 244.233 183.465 244.233ZM183.465 242.255C184.882 242.255 185.964 241.793 186.712 240.868C187.48 239.924 187.863 238.556 187.863 236.765C187.863 235.014 187.48 233.666 186.712 232.721C185.945 231.757 184.862 231.275 183.465 231.275C182.068 231.275 180.986 231.757 180.218 232.721C179.451 233.666 179.067 235.014 179.067 236.765C179.067 238.536 179.441 239.894 180.189 240.839C180.956 241.783 182.048 242.255 183.465 242.255ZM200.989 229.356C201.816 229.297 202.229 229.632 202.229 230.36C202.229 230.675 202.14 230.931 201.963 231.127C201.786 231.305 201.481 231.413 201.048 231.452L200.163 231.541C198.844 231.659 197.86 232.131 197.211 232.958C196.581 233.764 196.266 234.719 196.266 235.821V242.993C196.266 243.387 196.158 243.682 195.942 243.879C195.725 244.076 195.44 244.174 195.086 244.174C194.732 244.174 194.436 244.076 194.2 243.879C193.984 243.662 193.876 243.367 193.876 242.993V230.537C193.876 230.163 193.994 229.878 194.23 229.681C194.466 229.465 194.751 229.356 195.086 229.356C195.401 229.356 195.666 229.465 195.883 229.681C196.099 229.878 196.207 230.153 196.207 230.508V232.161C196.621 231.295 197.201 230.636 197.949 230.183C198.716 229.73 199.592 229.465 200.576 229.386L200.989 229.356ZM219.123 229.297C220.382 229.297 221.494 229.612 222.458 230.242C223.422 230.872 224.17 231.757 224.702 232.899C225.233 234.02 225.498 235.329 225.498 236.824C225.498 238.32 225.233 239.628 224.702 240.75C224.17 241.852 223.422 242.708 222.458 243.318C221.514 243.928 220.402 244.233 219.123 244.233C218.001 244.233 217.017 243.987 216.171 243.495C215.345 243.003 214.715 242.305 214.282 241.399V248.336C214.282 248.69 214.174 248.966 213.957 249.162C213.761 249.379 213.475 249.487 213.101 249.487C212.727 249.487 212.432 249.379 212.216 249.162C211.999 248.946 211.891 248.67 211.891 248.336V230.537C211.891 230.183 211.999 229.898 212.216 229.681C212.432 229.465 212.727 229.356 213.101 229.356C213.475 229.356 213.761 229.465 213.957 229.681C214.174 229.898 214.282 230.183 214.282 230.537V232.131C214.715 231.226 215.345 230.527 216.171 230.035C217.017 229.543 218.001 229.297 219.123 229.297ZM218.651 242.255C220.048 242.255 221.13 241.783 221.897 240.839C222.665 239.894 223.049 238.556 223.049 236.824C223.049 235.093 222.665 233.745 221.897 232.78C221.13 231.797 220.048 231.305 218.651 231.305C217.253 231.305 216.171 231.777 215.404 232.721C214.656 233.666 214.282 235.014 214.282 236.765C214.282 238.517 214.656 239.874 215.404 240.839C216.171 241.783 217.253 242.255 218.651 242.255ZM240.199 240.691C240.415 240.691 240.602 240.78 240.76 240.957C240.917 241.134 240.996 241.36 240.996 241.636C240.996 242.127 240.651 242.58 239.963 242.993C239.254 243.407 238.506 243.721 237.719 243.938C236.932 244.135 236.165 244.233 235.417 244.233C233.193 244.233 231.432 243.574 230.134 242.255C228.854 240.937 228.215 239.117 228.215 236.795C228.215 235.319 228.5 234.02 229.071 232.899C229.642 231.757 230.439 230.872 231.462 230.242C232.505 229.612 233.685 229.297 235.004 229.297C236.873 229.297 238.359 229.907 239.461 231.127C240.563 232.348 241.114 234 241.114 236.086C241.114 236.48 241.035 236.765 240.878 236.942C240.72 237.119 240.464 237.208 240.11 237.208H230.606C230.783 240.593 232.387 242.285 235.417 242.285C236.184 242.285 236.844 242.186 237.395 241.99C237.946 241.773 238.536 241.488 239.166 241.134C239.677 240.839 240.022 240.691 240.199 240.691ZM235.033 231.157C233.774 231.157 232.761 231.551 231.993 232.338C231.245 233.125 230.803 234.237 230.665 235.673H239.018C238.979 234.217 238.615 233.105 237.926 232.338C237.237 231.551 236.273 231.157 235.033 231.157ZM249.477 244.233C248.572 244.233 247.706 244.125 246.88 243.908C246.073 243.692 245.355 243.387 244.725 242.993C244.371 242.757 244.115 242.541 243.958 242.344C243.82 242.127 243.751 241.872 243.751 241.576C243.751 241.321 243.82 241.114 243.958 240.957C244.115 240.78 244.312 240.691 244.548 240.691C244.784 240.691 245.128 240.839 245.581 241.134C246.171 241.488 246.752 241.773 247.322 241.99C247.913 242.186 248.641 242.285 249.507 242.285C250.569 242.285 251.396 242.098 251.986 241.724C252.577 241.35 252.872 240.809 252.872 240.101C252.872 239.668 252.763 239.323 252.547 239.068C252.331 238.792 251.957 238.556 251.425 238.359C250.894 238.143 250.117 237.926 249.094 237.71C247.362 237.336 246.122 236.834 245.374 236.204C244.627 235.575 244.253 234.719 244.253 233.636C244.253 232.79 244.489 232.043 244.961 231.393C245.433 230.744 246.083 230.232 246.909 229.858C247.755 229.484 248.71 229.297 249.772 229.297C250.54 229.297 251.278 229.406 251.986 229.622C252.714 229.819 253.354 230.104 253.905 230.478C254.574 230.95 254.908 231.442 254.908 231.954C254.908 232.21 254.83 232.426 254.672 232.603C254.515 232.78 254.328 232.869 254.111 232.869C253.875 232.869 253.521 232.702 253.049 232.367C252.498 232.013 251.976 231.738 251.484 231.541C250.992 231.344 250.382 231.246 249.654 231.246C248.729 231.246 247.982 231.452 247.411 231.865C246.86 232.279 246.585 232.83 246.585 233.518C246.585 233.951 246.683 234.305 246.88 234.581C247.096 234.837 247.441 235.073 247.913 235.289C248.405 235.486 249.103 235.683 250.009 235.88C251.347 236.175 252.38 236.5 253.108 236.854C253.856 237.208 254.387 237.641 254.702 238.153C255.017 238.664 255.174 239.314 255.174 240.101C255.174 241.34 254.653 242.344 253.61 243.111C252.567 243.859 251.189 244.233 249.477 244.233ZM263.659 244.233C262.754 244.233 261.888 244.125 261.062 243.908C260.255 243.692 259.537 243.387 258.907 242.993C258.553 242.757 258.297 242.541 258.14 242.344C258.002 242.127 257.933 241.872 257.933 241.576C257.933 241.321 258.002 241.114 258.14 240.957C258.297 240.78 258.494 240.691 258.73 240.691C258.966 240.691 259.31 240.839 259.763 241.134C260.353 241.488 260.934 241.773 261.504 241.99C262.095 242.186 262.823 242.285 263.689 242.285C264.751 242.285 265.578 242.098 266.168 241.724C266.758 241.35 267.054 240.809 267.054 240.101C267.054 239.668 266.945 239.323 266.729 239.068C266.512 238.792 266.139 238.556 265.607 238.359C265.076 238.143 264.299 237.926 263.275 237.71C261.544 237.336 260.304 236.834 259.556 236.204C258.809 235.575 258.435 234.719 258.435 233.636C258.435 232.79 258.671 232.043 259.143 231.393C259.615 230.744 260.265 230.232 261.091 229.858C261.937 229.484 262.892 229.297 263.954 229.297C264.722 229.297 265.46 229.406 266.168 229.622C266.896 229.819 267.536 230.104 268.087 230.478C268.756 230.95 269.09 231.442 269.09 231.954C269.09 232.21 269.012 232.426 268.854 232.603C268.697 232.78 268.51 232.869 268.293 232.869C268.057 232.869 267.703 232.702 267.231 232.367C266.68 232.013 266.158 231.738 265.666 231.541C265.174 231.344 264.564 231.246 263.836 231.246C262.911 231.246 262.164 231.452 261.593 231.865C261.042 232.279 260.767 232.83 260.767 233.518C260.767 233.951 260.865 234.305 261.062 234.581C261.278 234.837 261.623 235.073 262.095 235.289C262.587 235.486 263.285 235.683 264.19 235.88C265.529 236.175 266.562 236.5 267.29 236.854C268.038 237.208 268.569 237.641 268.884 238.153C269.199 238.664 269.356 239.314 269.356 240.101C269.356 241.34 268.834 242.344 267.792 243.111C266.749 243.859 265.371 244.233 263.659 244.233ZM278.963 244.233C277.605 244.233 276.405 243.928 275.362 243.318C274.338 242.708 273.541 241.842 272.971 240.72C272.42 239.579 272.144 238.261 272.144 236.765C272.144 235.27 272.42 233.961 272.971 232.839C273.541 231.698 274.338 230.822 275.362 230.212C276.405 229.602 277.605 229.297 278.963 229.297C280.321 229.297 281.521 229.602 282.564 230.212C283.607 230.822 284.404 231.698 284.955 232.839C285.525 233.961 285.811 235.27 285.811 236.765C285.811 238.261 285.525 239.579 284.955 240.72C284.404 241.842 283.607 242.708 282.564 243.318C281.521 243.928 280.321 244.233 278.963 244.233ZM278.963 242.255C280.38 242.255 281.462 241.793 282.21 240.868C282.977 239.924 283.361 238.556 283.361 236.765C283.361 235.014 282.977 233.666 282.21 232.721C281.442 231.757 280.36 231.275 278.963 231.275C277.566 231.275 276.483 231.757 275.716 232.721C274.948 233.666 274.565 235.014 274.565 236.765C274.565 238.536 274.939 239.894 275.686 240.839C276.454 241.783 277.546 242.255 278.963 242.255ZM295.247 229.297C298.848 229.297 300.648 231.187 300.648 234.965V242.993C300.648 243.347 300.54 243.633 300.324 243.849C300.127 244.066 299.851 244.174 299.497 244.174C299.143 244.174 298.858 244.066 298.641 243.849C298.425 243.633 298.317 243.347 298.317 242.993V241.576C297.943 242.423 297.372 243.082 296.605 243.554C295.837 244.007 294.952 244.233 293.948 244.233C293.023 244.233 292.167 244.046 291.38 243.672C290.613 243.298 290.003 242.777 289.55 242.108C289.097 241.439 288.871 240.701 288.871 239.894C288.871 238.812 289.147 237.975 289.698 237.385C290.249 236.775 291.154 236.342 292.413 236.086C293.673 235.811 295.424 235.673 297.667 235.673H298.317V234.699C298.317 233.518 298.071 232.653 297.579 232.102C297.106 231.551 296.329 231.275 295.247 231.275C293.909 231.275 292.551 231.639 291.174 232.367C290.642 232.702 290.268 232.869 290.052 232.869C289.816 232.869 289.619 232.78 289.462 232.603C289.304 232.426 289.225 232.2 289.225 231.924C289.225 231.649 289.304 231.413 289.462 231.216C289.639 231 289.914 230.783 290.288 230.567C290.977 230.173 291.754 229.868 292.62 229.652C293.505 229.416 294.381 229.297 295.247 229.297ZM294.273 242.344C295.453 242.344 296.418 241.95 297.165 241.163C297.933 240.356 298.317 239.323 298.317 238.064V237.208H297.785C296.054 237.208 294.735 237.287 293.83 237.444C292.925 237.582 292.275 237.828 291.882 238.182C291.508 238.517 291.321 239.018 291.321 239.687C291.321 240.455 291.597 241.094 292.148 241.606C292.718 242.098 293.427 242.344 294.273 242.344Z" fill="#A6DAD3"/>
</svg>
