<svg id="Camada_1" data-name="Camada 1" xmlns="http://www.w3.org/2000/svg" viewBox="0 0 1161.71 1074.61"><defs><style>.cls-1{fill:#fdd39c;}.cls-2{fill:#ec5661;}.cls-3{fill:#06264d;}</style></defs><title>preço</title><path class="cls-1" d="M336.67-224.83C107.32-474.69-141.81,177.66-205.88,388.37S.43,633.19,182.17,670.8C472.52,730.9,605.34,614.51,628,474.29S566,25,336.67-224.83Z" transform="translate(324.39 281)"/><path class="cls-2" d="M504.17,78.7C371.54,103.17,281-30.08,219.92-112.11,171.89-176.61-29.8-282.87-155-92.3-268.51,80.41-221.67,337.6-43,467.88s451.1,118.22,620.14,37.6c107-51,242-145.84,258.67-280.2C854.12,77.65,707.7,41.14,504.17,78.7Z" transform="translate(324.39 281)"/><path class="cls-3" d="M528-164.21q-8-.28-16.29-.28c-88.08,0-198.93,23.42-278.14,51-3.91,1.36-7.81,2.73-11.67,4.12q3.67,4.92,7.48,10.06c2.7-1,5.41-1.92,8.14-2.88,87.88-30.56,195.5-50.3,274.19-50.3,5.39,0,10.73.1,15.85.27,37.18,1.31,64.94,14.27,80.32,37.48C626.34-87,626.27-44.85,607.73,3.82c-8.36,22-15.4,42.83-21.29,63.52C562.75,150.53,557.31,231.28,556,372.21c-.28,32.36-.07,62.09.17,90.83.15,18.09.29,35.33.27,51.72-.1,100.24-5.75,169.32-49.27,213.92-33.85,34.63-73.59,53-114.93,53-45.53,0-91.93-21.63-137.94-64.29-101.42-94-227.43-160-354.84-185.8C-198.3,511.76-275.16,493-301.61,447.62c-14.37-24.7-14.37-58.11.07-102.16,13.44-41.1,39.5-98,89.8-160.17-.84-5.42-1.53-10.83-2.15-16.24-50.54,60.26-81.73,119.81-99.05,172.67-46.54,142.14,53.73,169.92,210,201.56,125.7,25.44,248.29,89.39,349.08,182.86,51.41,47.67,101.08,67.47,146.09,67.47,47.45,0,89.73-22,123.5-56.57,47.4-48.53,52.74-122.26,52.67-227.51,0-40.86-.91-86.49-.43-137.22,1.37-146,7.28-224.56,31.14-305.95,5.58-19,12.12-38.11,19.81-58.28C657.53-93.21,618.32-161,528-164.21Z" transform="translate(324.39 281)"/></svg>