<svg width="32" height="34" viewBox="0 0 32 34" fill="none" xmlns="http://www.w3.org/2000/svg">
<path fill-rule="evenodd" clip-rule="evenodd" d="M30.7011 26.4444C26.027 16.7979 20.5713 14.2554 20.5713 9.44444V3.77778H21.7141C22.0172 3.77778 22.3078 3.67827 22.5222 3.50116C22.7365 3.32404 22.8569 3.08382 22.8569 2.83333V0.944444C22.8569 0.693962 22.7365 0.453739 22.5222 0.276621C22.3078 0.0995037 22.0172 0 21.7141 0H10.2859C9.98285 0 9.69217 0.0995037 9.47785 0.276621C9.26353 0.453739 9.14313 0.693962 9.14313 0.944444V2.83333C9.14313 3.08382 9.26353 3.32404 9.47785 3.50116C9.69217 3.67827 9.98285 3.77778 10.2859 3.77778H11.4288V9.44444C11.4288 14.2554 5.97297 16.7979 1.29886 26.4444C-0.189078 29.5139 -4.01064 34 16 34C36.0106 34 32.1891 29.5139 30.7011 26.4444ZM27.0053 29.7519C25.4008 30.1486 22.2078 30.6 16 30.6C9.79224 30.6 6.59923 30.1486 4.99472 29.7519C4.4256 29.6121 4.20389 29.0662 4.40503 28.5657C4.90786 27.3001 5.8564 25.1128 7.63004 22.6704C11.9636 16.7034 16.4594 23.6092 20.201 23.6092C23.9425 23.6092 22.9163 20.6607 24.37 22.6704C25.7077 24.53 26.7894 26.5073 27.595 28.5657C27.7961 29.0662 27.5744 29.6102 27.0053 29.7519Z" fill="#FFD45A"/>
</svg>
