<svg width="32" height="33" viewBox="0 0 32 33" fill="none" xmlns="http://www.w3.org/2000/svg">
<path d="M32 30.7788V32.03H0V30.7788C0 30.3643 0.383786 30.0281 0.857143 30.0281H2.28571V7.50703C2.28571 6.67782 3.05321 6.00562 4 6.00562H10.2857V1.50141C10.2857 0.672192 11.0532 0 12 0H20C20.9468 0 21.7143 0.672192 21.7143 1.50141V6.00562H28C28.9468 6.00562 29.7143 6.67782 29.7143 7.50703V30.0281H31.1429C31.6162 30.0281 32 30.3643 32 30.7788ZM22 12.0112H19.1429C18.6695 12.0112 18.2857 12.3474 18.2857 12.762V15.2643C18.2857 15.6789 18.6695 16.015 19.1429 16.015H22C22.4734 16.015 22.8571 15.6789 22.8571 15.2643V12.762C22.8571 12.3474 22.4734 12.0112 22 12.0112ZM10 16.015H12.8571C13.3305 16.015 13.7143 15.6789 13.7143 15.2643V12.762C13.7143 12.3474 13.3305 12.0112 12.8571 12.0112H10C9.52664 12.0112 9.14286 12.3474 9.14286 12.762V15.2643C9.14286 15.6789 9.52664 16.015 10 16.015ZM17.4286 24.0225H14.5714C14.0981 24.0225 13.7143 24.3586 13.7143 24.7732V30.0281H18.2857V24.7732C18.2857 24.3586 17.9019 24.0225 17.4286 24.0225ZM22 18.0169H19.1429C18.6695 18.0169 18.2857 18.353 18.2857 18.7676V21.2699C18.2857 21.6845 18.6695 22.0206 19.1429 22.0206H22C22.4734 22.0206 22.8571 21.6845 22.8571 21.2699V18.7676C22.8571 18.353 22.4734 18.0169 22 18.0169ZM13.7143 18.7676C13.7143 18.353 13.3305 18.0169 12.8571 18.0169H10C9.52664 18.0169 9.14286 18.353 9.14286 18.7676V21.2699C9.14286 21.6845 9.52664 22.0206 10 22.0206H12.8571C13.3305 22.0206 13.7143 21.6845 13.7143 21.2699V18.7676ZM13 6.00562H14.8571V7.63215C14.8571 7.7317 14.9023 7.82717 14.9827 7.89756C15.063 7.96795 15.1721 8.0075 15.2857 8.0075H16.7143C16.828 8.0075 16.937 7.96795 17.0173 7.89756C17.0977 7.82717 17.1429 7.7317 17.1429 7.63215V6.00562H19C19.1137 6.00562 19.2227 5.96608 19.303 5.89569C19.3834 5.82529 19.4286 5.72982 19.4286 5.63027V4.3791C19.4286 4.27955 19.3834 4.18408 19.303 4.11369C19.2227 4.0433 19.1137 4.00375 19 4.00375H17.1429V2.37723C17.1429 2.27768 17.0977 2.1822 17.0173 2.11181C16.937 2.04142 16.828 2.00187 16.7143 2.00187H15.2857C15.1721 2.00187 15.063 2.04142 14.9827 2.11181C14.9023 2.1822 14.8571 2.27768 14.8571 2.37723V4.00375H13C12.8863 4.00375 12.7773 4.0433 12.697 4.11369C12.6166 4.18408 12.5714 4.27955 12.5714 4.3791V5.63027C12.5714 5.72982 12.6166 5.82529 12.697 5.89569C12.7773 5.96608 12.8863 6.00562 13 6.00562Z" fill="#FFD45A"/>
</svg>
