<svg width="32" height="32" viewBox="0 0 32 32" fill="none" xmlns="http://www.w3.org/2000/svg">
<path d="M9.10432 9.10449C11.1868 7.02197 11.1868 3.64442 9.10432 1.5619C7.02183 -0.520632 3.64435 -0.520632 1.56186 1.5619C-0.520622 3.64442 -0.520622 7.02197 1.56186 9.10449C3.64518 11.1879 7.02183 11.1879 9.10432 9.10449ZM30.4375 22.8955C28.355 20.813 24.9775 20.813 22.8951 22.8955C20.8126 24.978 20.8126 28.3556 22.8951 30.4381C24.9775 32.5206 28.355 32.5206 30.4375 30.4381C32.5208 28.3556 32.5208 24.9789 30.4375 22.8955ZM30.2758 3.60942L28.3909 1.7244C27.3492 0.682718 25.6609 0.682718 24.62 1.7244L1.72436 24.6205C0.682704 25.6622 0.682704 27.3506 1.72436 28.3914L3.60935 30.2764C4.65101 31.3181 6.33933 31.3181 7.38016 30.2764L30.2758 7.3803C31.3175 6.33946 31.3175 4.6511 30.2758 3.60942Z" fill="#FFD45A"/>
</svg>
