<svg width="35" height="35" viewBox="0 0 35 35" fill="none" xmlns="http://www.w3.org/2000/svg">
<path d="M10.6522 16.1538C8.63422 16.1538 6.69892 15.4447 5.27201 14.1824C3.8451 12.9202 3.04348 11.2082 3.04348 9.42308V4.03846C3.04348 3.68144 3.2038 3.33904 3.48918 3.08659C3.77457 2.83413 4.16162 2.69231 4.56522 2.69231H6.08695C6.49054 2.69231 6.8776 2.55048 7.16299 2.29803C7.44837 2.04558 7.60869 1.70318 7.60869 1.34615C7.60869 0.989132 7.44837 0.646732 7.16299 0.394279C6.8776 0.141826 6.49054 0 6.08695 0H4.56522C3.35444 0 2.19326 0.42548 1.33712 1.18284C0.480977 1.9402 0 2.96739 0 4.03846V9.42308C0.00195607 10.9439 0.421175 12.4415 1.22165 13.7874C2.02213 15.1333 3.17994 16.2872 4.59565 17.15C5.95582 18.2108 7.0589 19.5044 7.8383 20.9528C8.6177 22.4011 9.05725 23.9741 9.13043 25.5769C9.13043 28.0761 10.2527 30.4729 12.2504 32.24C14.248 34.0072 16.9575 35 19.7826 35C22.6077 35 25.3172 34.0072 27.3148 32.24C29.3125 30.4729 30.4348 28.0761 30.4348 25.5769V24.0423C31.8693 23.7147 33.1194 22.9355 33.9509 21.8508C34.7824 20.7661 35.1381 19.4503 34.9515 18.1502C34.7648 16.8501 34.0485 15.6548 32.9369 14.7884C31.8252 13.922 30.3946 13.4441 28.913 13.4441C27.4315 13.4441 26.0008 13.922 24.8892 14.7884C23.7776 15.6548 23.0613 16.8501 22.8746 18.1502C22.6879 19.4503 23.0437 20.7661 23.8752 21.8508C24.7067 22.9355 25.9568 23.7147 27.3913 24.0423V25.5769C27.3913 27.362 26.5897 29.074 25.1628 30.3363C23.7359 31.5986 21.8006 32.3077 19.7826 32.3077C17.7647 32.3077 15.8293 31.5986 14.4024 30.3363C12.9755 29.074 12.1739 27.362 12.1739 25.5769C12.2509 23.9722 12.6952 22.3979 13.4799 20.9495C14.2646 19.501 15.3734 18.2084 16.7391 17.15C18.1492 16.2842 19.3011 15.129 20.0962 13.7833C20.8912 12.4376 21.3058 10.9415 21.3043 9.42308V4.03846C21.3043 2.96739 20.8234 1.9402 19.9672 1.18284C19.1111 0.42548 17.9499 0 16.7391 0H15.2174C14.8138 0 14.4267 0.141826 14.1414 0.394279C13.856 0.646732 13.6956 0.989132 13.6956 1.34615C13.6956 1.70318 13.856 2.04558 14.1414 2.29803C14.4267 2.55048 14.8138 2.69231 15.2174 2.69231H16.7391C17.1427 2.69231 17.5298 2.83413 17.8152 3.08659C18.1005 3.33904 18.2609 3.68144 18.2609 4.03846V9.42308C18.2609 10.307 18.0641 11.1822 17.6817 11.9988C17.2993 12.8154 16.7389 13.5574 16.0323 14.1824C15.3258 14.8075 14.487 15.3032 13.5639 15.6415C12.6408 15.9798 11.6514 16.1538 10.6522 16.1538ZM28.913 21.5385C28.1059 21.5385 27.3317 21.2548 26.761 20.7499C26.1902 20.245 25.8696 19.5602 25.8696 18.8462C25.8696 18.1321 26.1902 17.4473 26.761 16.9424C27.3317 16.4375 28.1059 16.1538 28.913 16.1538C29.7202 16.1538 30.4943 16.4375 31.0651 16.9424C31.6359 17.4473 31.9565 18.1321 31.9565 18.8462C31.9565 19.5602 31.6359 20.245 31.0651 20.7499C30.4943 21.2548 29.7202 21.5385 28.913 21.5385Z" fill="#FFD45A"/>
</svg>
